<svg id="available-fund_" data-name="available-fund&apos;" xmlns="http://www.w3.org/2000/svg" xmlns:xlink="http://www.w3.org/1999/xlink" width="109.691" height="70.919" viewBox="0 0 109.691 70.919">
  <defs>
    <linearGradient id="linear-gradient" x1="0.5" y1="1" x2="0.5" gradientUnits="objectBoundingBox">
      <stop offset="0" stop-color="gray" stop-opacity="0.251"/>
      <stop offset="0.54" stop-color="gray" stop-opacity="0.122"/>
      <stop offset="1" stop-color="gray" stop-opacity="0.102"/>
    </linearGradient>
  </defs>
  <rect id="Rectangle_217" data-name="Rectangle 217" width="109.691" height="0.802" transform="translate(0 70.117)" fill="#85848b"/>
  <path id="Path_298" data-name="Path 298" d="M783.539,649.874c0,.617-3.594,2.414-7.863,2.414s-7.6-1.8-7.6-2.414,3.46-.418,7.734-.418S783.539,649.257,783.539,649.874Z" transform="translate(-696.635 -593.911)" fill="#504f60"/>
  <path id="Path_299" data-name="Path 299" d="M783.539,653.72c0,.617-3.594,2.414-7.863,2.414s-7.6-1.8-7.6-2.414" transform="translate(-696.635 -597.756)" opacity="0.2"/>
  <path id="Path_300" data-name="Path 300" d="M502.058,531.422a4.771,4.771,0,0,0,2.076-.07c.1-.032.219-.1.209-.209a.253.253,0,0,0-.047-.1,6.461,6.461,0,0,1-.627-1.195.1.1,0,0,0-.039-.054.1.1,0,0,0-.067,0c-.306.08-.571.278-.875.363a1.244,1.244,0,0,1-.477.036c-.138-.016-.326-.13-.452-.115C501.831,530.53,502,530.956,502.058,531.422Z" transform="translate(-458.148 -486.773)" fill="#6c63ff"/>
  <path id="Path_301" data-name="Path 301" d="M623.481,514.08a3.628,3.628,0,0,0,1.2-1.127.2.2,0,0,0,.032-.1.2.2,0,0,0-.039-.094,3.883,3.883,0,0,0-.975-1.052,2.842,2.842,0,0,0-.543.5c-.115.121-.433.313-.436.5,0,.1.121.226.178.314q.114.169.217.345A4.084,4.084,0,0,1,623.481,514.08Z" transform="translate(-566.467 -470.588)" fill="#6c63ff"/>
  <path id="Path_302" data-name="Path 302" d="M469.925,539.213a.465.465,0,0,1-.084.3.411.411,0,0,1-.176.1c-.969.347-2.09-.086-3.057.256-.2.07-.387.171-.586.238a3.189,3.189,0,0,1-.732.13c-.342.032-.686.053-1.028.063a2.47,2.47,0,0,1-.775-.068.931.931,0,0,1-.595-.471.453.453,0,0,1-.029-.336.363.363,0,0,1,.064-.1.916.916,0,0,1,.228-.185l.356-.23a2.389,2.389,0,0,1,.54-.286c.141-.046.291-.066.434-.1a2.943,2.943,0,0,0,1.238-.925l.485-.517a.488.488,0,0,1,.168-.135.465.465,0,0,1,.209-.02,2.8,2.8,0,0,1,1.322.443,1.717,1.717,0,0,0,.326.192,1.165,1.165,0,0,0,.911-.113c.124-.067.1-.1.149-.224s.18-.2.291-.087a.307.307,0,0,1,.069.132,3.71,3.71,0,0,1,.065,1.078.474.474,0,0,0,.021.167.951.951,0,0,0,.1.155.354.354,0,0,1,.02.04A1.062,1.062,0,0,1,469.925,539.213Z" transform="translate(-423.299 -493.164)" fill="#514e7f"/>
  <path id="Path_303" data-name="Path 303" d="M469.925,554.5a.465.465,0,0,1-.084.3.411.411,0,0,1-.176.1c-.969.347-2.09-.086-3.057.256-.2.07-.387.171-.586.238a3.189,3.189,0,0,1-.732.13c-.342.032-.686.053-1.028.063a2.475,2.475,0,0,1-.775-.068.931.931,0,0,1-.595-.471.453.453,0,0,1-.029-.336.362.362,0,0,1,.064-.1c.056.118.1.275.133.331a.678.678,0,0,0,.454.327,1.126,1.126,0,0,0,.418-.053,21.028,21.028,0,0,0,2.655-.55,6.147,6.147,0,0,1,.87-.334,6.837,6.837,0,0,1,.941-.076c.5-.04.975-.189,1.463-.268A1.063,1.063,0,0,1,469.925,554.5Z" transform="translate(-423.299 -508.449)" fill="#464353"/>
  <path id="Path_304" data-name="Path 304" d="M604.209,519.442a1.761,1.761,0,0,1-.535.953,6.228,6.228,0,0,0-.749.819,6.6,6.6,0,0,1-.69,1.183,1.9,1.9,0,0,1-.418.3,2.908,2.908,0,0,1-.538.248,4.015,4.015,0,0,1-1.521.083,1.369,1.369,0,0,1-.483-.093,1.46,1.46,0,0,1-.2-.123.958.958,0,0,1-.313-.314.313.313,0,0,1-.03-.228.535.535,0,0,1,.145-.222,3.46,3.46,0,0,1,.368-.331,2.2,2.2,0,0,0,.479-.418,1.348,1.348,0,0,0,.185-.418,3.707,3.707,0,0,0,.135-.8,2.535,2.535,0,0,1,.055-.535c.077-.276.282-.523.259-.808a.2.2,0,0,1,.01-.122.17.17,0,0,1,.1-.06,1.7,1.7,0,0,1,.5-.116.582.582,0,0,1,.464.182c.071.086.118.209.223.242a.354.354,0,0,0,.159.006,1.331,1.331,0,0,0,.732-.225.913.913,0,0,0,.3-.666c0-.1-.043-.194.1-.209.111-.015.2.1.255.178a2.476,2.476,0,0,1,.489.89.265.265,0,0,1,.093-.018.4.4,0,0,1,.333.17A.664.664,0,0,1,604.209,519.442Z" transform="translate(-544.977 -476.013)" fill="#514e7f"/>
  <path id="Path_305" data-name="Path 305" d="M604.548,528.317a1.762,1.762,0,0,1-.535.953,6.236,6.236,0,0,0-.749.819,6.591,6.591,0,0,1-.69,1.183,1.894,1.894,0,0,1-.418.3,2.921,2.921,0,0,1-.538.248,4.02,4.02,0,0,1-1.521.083,1.369,1.369,0,0,1-.483-.093,1.453,1.453,0,0,1-.2-.123.959.959,0,0,1-.314-.314.765.765,0,0,1,.314-.075c.226.013.391.226.607.292.308.093.616-.124.928-.2a6.258,6.258,0,0,0,.62-.1,1.532,1.532,0,0,0,.459-.278,2.335,2.335,0,0,0,.49-.472,3.036,3.036,0,0,0,.287-.574,8.211,8.211,0,0,1,.581-1.112.787.787,0,0,1,.118-.155,1.66,1.66,0,0,1,.16-.116,1.215,1.215,0,0,0,.369-.673,1.168,1.168,0,0,1,.083-.225.4.4,0,0,1,.333.17A.664.664,0,0,1,604.548,528.317Z" transform="translate(-545.315 -484.889)" fill="#464353"/>
  <path id="Path_306" data-name="Path 306" d="M438.047,199.872a2.217,2.217,0,0,1,.627.732,15.1,15.1,0,0,1,.941,2.831c.275-.277,1.359-.322,1.637-.6.116-.116.742-.695.836-.83s.792-.418.868-.56c.285-.511-2.023-2.448-1.728-2.952a.132.132,0,0,0,.024-.079.13.13,0,0,0-.039-.062,3.461,3.461,0,0,0-.668-.457,1.059,1.059,0,0,1-.509-.606,2.2,2.2,0,0,0-.59.4q-.635.544-1.249,1.111c-.16.148-.469.346-.543.558C437.566,199.586,437.895,199.748,438.047,199.872Z" transform="translate(-400.729 -189.027)" fill="#a1616a"/>
  <path id="Path_307" data-name="Path 307" d="M452.378,214.13a6.8,6.8,0,0,0-.989.809,1.968,1.968,0,0,0-.627,1.007c-.029.156-.025.314-.049.471-.1.685-.7,1.186-.957,1.827a3.165,3.165,0,0,0-.166.611,7.228,7.228,0,0,0-.12,1.2c-.006.39.376.658.516,1.022a6.241,6.241,0,0,1,.249,1.111,13.165,13.165,0,0,0,.627,2.059c.515,1.423,2.185,5.358,2.7,6.783,1.579-.4,5.782-1.306,7.181-2.141.466-.278-3.235-3.414-2.736-3.631a.186.186,0,0,0,.14-.262c-.5-2.18-2.058-3.971-2.765-6.094a18.494,18.494,0,0,0-1.021-2.066c-.3-.634-.465-1.336-.828-1.939a1.22,1.22,0,0,0-.264-.329,1.558,1.558,0,0,0-.292-.177C452.77,214.291,452.577,214.231,452.378,214.13Z" transform="translate(-411.322 -204.108)" fill="#514e7f"/>
  <circle id="Ellipse_38" data-name="Ellipse 38" cx="2.472" cy="2.472" r="2.472" transform="translate(34.93 5.654)" fill="#a1616a"/>
  <path id="Path_308" data-name="Path 308" d="M466.4,205.209a.829.829,0,0,1,.929-.134.449.449,0,0,1,.276.446l1.226.019a2.461,2.461,0,0,1,.581.053.844.844,0,0,1,.485.3c.015.02.031.044.056.047a.09.09,0,0,0,.056-.019,1.064,1.064,0,0,1,.61-.1,3.3,3.3,0,0,1,1.794.788.58.58,0,0,1,.209.26c.043.139-.008.314.1.413a14.715,14.715,0,0,0,.658,3.344,1.5,1.5,0,0,0,.371.533,2.152,2.152,0,0,1,.4.592c.224.581-.085,1.265.133,1.848a3.166,3.166,0,0,0,.418.664,1.716,1.716,0,0,1,.357.857c.009.14-.008.281,0,.418a2.529,2.529,0,0,0,.1.555q.134.506.28,1.011a2.294,2.294,0,0,0,.853,1.419,6.962,6.962,0,0,1-3.536-.014,1.833,1.833,0,0,1-.441-.221,2.541,2.541,0,0,1-.774-1.248,5.892,5.892,0,0,1-.432-1.61,1.85,1.85,0,0,0-.074-.523,1.488,1.488,0,0,0-.694-.654,3.332,3.332,0,0,1-.836-.65,1.3,1.3,0,0,1-.339-.976c.021-.172.089-.339.1-.512a.4.4,0,0,0-.237-.418c-.856-.259-1.265-1.273-1.455-2.147a6.893,6.893,0,0,1-.11-1.369l-.012-.891a1.177,1.177,0,0,1-.385-.845,1,1,0,0,0-.005-.28.773.773,0,0,0-.2-.3A2.66,2.66,0,0,1,466.4,205.209Z" transform="translate(-426.484 -195.922)" fill="#464353"/>
  <path id="Path_309" data-name="Path 309" d="M439.735,227.835a6.839,6.839,0,0,1-.027.83c-.024.1-.066.209-.1.306a1.8,1.8,0,0,0,.114,1.163,6.483,6.483,0,0,0,.595,1.029,1.671,1.671,0,0,1,.19.356,1.846,1.846,0,0,1,.073.407,12.626,12.626,0,0,0,.291,1.643,41.368,41.368,0,0,0,1.756,4.842.394.394,0,0,0,.238.162.434.434,0,0,0,.2-.042l.627-.24a.41.41,0,0,0,.145-.079.374.374,0,0,0,.09-.247,42.708,42.708,0,0,0-1.457-5.023,38.417,38.417,0,0,1-1.527-4.363,3.169,3.169,0,0,0-.448-1.4c-.126-.138-.084-.079-.235-.007a1.723,1.723,0,0,0-.222.116A.725.725,0,0,0,439.735,227.835Z" transform="translate(-402.452 -215.723)" fill="#464353"/>
  <path id="Path_310" data-name="Path 310" d="M556.62,320.79" transform="translate(-507.275 -299.621)" fill="#464353"/>
  <path id="Path_311" data-name="Path 311" d="M458.15,223.888c.168.889.342,1.777.514,2.666l2.454-.643a1.725,1.725,0,0,0-.209-.732c-.224-.561-.229-1.186-.41-1.763-.137-.439-.375-.842-.5-1.284-.074-.257-.112-.523-.185-.783a5.683,5.683,0,0,0-.288-.747,4.674,4.674,0,0,0-.535-.992,1.561,1.561,0,0,0-.827.536,1.158,1.158,0,0,0-.153.523c-.043.551.157,1.1.091,1.652A4.859,4.859,0,0,0,458.15,223.888Z" transform="translate(-418.963 -209.015)" fill="#ca2233"/>
  <path id="Path_312" data-name="Path 312" d="M476.526,328.283a2.931,2.931,0,0,1-.225,1.59,12.319,12.319,0,0,0-.5,2.393,2.072,2.072,0,0,1-.123.605c-.077.175-.209.322-.3.488a2.451,2.451,0,0,0-.187,1.469c.036.329.089.657.155.981a2.482,2.482,0,0,1,.064,1.2c.194-.043.326.209.314.407a1.085,1.085,0,0,0,.019.588c.24.088.243.418.235.674a5.673,5.673,0,0,0,.167,1.317q.546,2.623,1.158,5.232a4.04,4.04,0,0,0,2.757.18.553.553,0,0,0,.349-.351.612.612,0,0,0-.033-.27l-.4-1.453a2.667,2.667,0,0,1-.143-1.074c.039-.269.156-.558.024-.8-.045-.082-.116-.145-.168-.223-.209-.306-.1-.716-.083-1.087a.861.861,0,0,0-.017-.249,1.243,1.243,0,0,0-.119-.273,4.172,4.172,0,0,1-.46-2.076.513.513,0,0,0-.037-.271.878.878,0,0,1-.068-.111.3.3,0,0,1,.022-.2,1.83,1.83,0,0,1-.322-.314.451.451,0,0,0,.077-.7.235.235,0,0,0,.112-.4c-.051-.036-.119-.051-.156-.1-.056-.077-.01-.185.036-.268l.243-.44c.182-.327.223-.732.418-1.045a7.828,7.828,0,0,0,.644-1.469l.7-1.941.473.411a1.5,1.5,0,0,1,.389.443,1.91,1.91,0,0,1,.126.531c.173,1.053.836,1.967,1.082,3a1.977,1.977,0,0,0,.224.671,1.466,1.466,0,0,1,.128.192,1.02,1.02,0,0,1,.053.319,1.488,1.488,0,0,0,.627,1.066c.233.16.523.27.649.523a.977.977,0,0,0,.1.223c.113.136.356.152.4.322.027.1-.023.209.03.293a.276.276,0,0,0,.116.087l.68.34c.761.38,1.15,1.254,1.711,1.891a4.083,4.083,0,0,1,.512.677c.242.434.354.978.764,1.254a1.157,1.157,0,0,1,.3.221c.128.169.082.407.093.62s.174.467.377.4a1.488,1.488,0,0,0,0,.789,3.972,3.972,0,0,0,2.41-.976.951.951,0,0,0,.392-.658.236.236,0,0,0-.029-.131.373.373,0,0,0-.154-.116c-.636-.345-.828-1.144-1.15-1.793a15.53,15.53,0,0,0-1.045-1.6c-.757-1.144-1.273-2.529-2.417-3.285a1.645,1.645,0,0,1-.671-.588c-.07-.154-.078-.329-.134-.488a.423.423,0,0,0-.357-.314,2.189,2.189,0,0,0,.082-.759.958.958,0,0,0-.038-.327,1.594,1.594,0,0,0-.168-.324,3.108,3.108,0,0,1-.431-1.672,2.745,2.745,0,0,0-.029-.9c-.046-.145-.126-.278-.182-.418a2.611,2.611,0,0,1-.131-.786l-.063-1a4.937,4.937,0,0,0-.13-.993c-.209-.78-.418-4.046-1.134-4.413s-1.946,2.146-2.752,2.195a3.585,3.585,0,0,0-1.045.2,5.094,5.094,0,0,0-1.423.941l-1.482,1.245A5.458,5.458,0,0,1,476.526,328.283Z" transform="translate(-434.331 -301.58)" fill="#464353"/>
  <path id="Path_313" data-name="Path 313" d="M414.764,163.7a1.863,1.863,0,0,1,1.438-.7,3.349,3.349,0,0,1,1.59.4,1.965,1.965,0,0,0,.464.19c.261.053.552-.018.788.1a.944.944,0,0,1,.347.941,1.727,1.727,0,0,0,.094,1.045,2.411,2.411,0,0,1,.181.273.9.9,0,0,1-.015.581,3.769,3.769,0,0,1-.3-.384.353.353,0,0,0-.433-.112c-.135.091-.133.256-.14.4s-.045.326-.185.374a.3.3,0,0,1-.314-.122c-.239-.293-.143-.76-.38-1.054-.135-.167-.36-.249-.484-.424-.1-.138-.123-.314-.209-.462s-.285-.257-.418-.155a.564.564,0,0,0-.112.149.643.643,0,0,1-.763.23,1.276,1.276,0,0,0-.33-.143.409.409,0,0,0-.377.209.816.816,0,0,0-.1.437,1.007,1.007,0,0,1-.082.6.62.62,0,0,1-.167.159.521.521,0,0,1-.579.06.435.435,0,0,1-.13-.405,3.284,3.284,0,0,1,.123-.428c.092-.324-.028-.689.072-.994A3.174,3.174,0,0,1,414.764,163.7Z" transform="translate(-379.681 -158.317)" fill="#464353"/>
  <path id="Path_314" data-name="Path 314" d="M432.753,202.108a.38.38,0,0,0,.023.227.361.361,0,0,0,.123.118,2.535,2.535,0,0,0,1.164.377.354.354,0,0,1,.161.042.283.283,0,0,1,.068.324.843.843,0,0,0-.074.345c.03.218.289.314.508.346a1.181,1.181,0,0,0,.884-.172,1.366,1.366,0,0,0,.365-.547c.6-1.378.81-2.9,1.417-4.277a.906.906,0,0,0,.091-.286.282.282,0,0,0-.113-.263c-.113-.07-.288-.03-.365-.14-.038-.055-.033-.131-.067-.189-.07-.124-.254-.1-.379-.177-.1-.052-.166-.16-.276-.181a.347.347,0,0,0-.285.123,3.674,3.674,0,0,0-.742,1.249A14.641,14.641,0,0,1,434.194,201a1.147,1.147,0,0,0-.332-.651c-.187-.038-.426.291-.528.413A2.629,2.629,0,0,0,432.753,202.108Z" transform="translate(-396.346 -189.354)" fill="#ca2233"/>
  <path id="Path_315" data-name="Path 315" d="M459.165,200.32a.5.5,0,0,0-.388.194,1.105,1.105,0,0,0-.162.523A4.542,4.542,0,0,1,458,202.69" transform="translate(-418.962 -191.741)" opacity="0.1"/>
  <path id="Path_316" data-name="Path 316" d="M464.471,204.31a.6.6,0,0,0-.507.3,1.709,1.709,0,0,0-.128.516,2.833,2.833,0,0,1-.507,1.086" transform="translate(-423.735 -195.314)" opacity="0.1"/>
  <path id="Path_317" data-name="Path 317" d="M210.928,357.82v-1.3a3.6,3.6,0,0,0-3.6-3.6H156.063a3.6,3.6,0,0,0-3.6,3.6v2.393Z" transform="translate(-145.353 -328.393)" fill="#33323d"/>
  <path id="Path_318" data-name="Path 318" d="M323.36,269.8s-.146,9.078,1.463,12.065,2.3,15.98,2.3,15.98,16.872,1.745,28.629-2.09,36.775-5.4,36.775-5.4l-4.216-28.415s-20.828-1.336-32.676,4.315S323.36,269.8,323.36,269.8Z" transform="translate(-298.39 -246.79)" fill="#8dd070"/>
  <path id="Path_319" data-name="Path 319" d="M323.36,269.8s-.146,9.078,1.463,12.065,2.3,15.98,2.3,15.98,16.872,1.745,28.629-2.09,36.775-5.4,36.775-5.4l-4.216-28.415s-20.828-1.336-32.676,4.315S323.36,269.8,323.36,269.8Z" transform="translate(-298.39 -246.79)" opacity="0.1"/>
  <path id="Path_320" data-name="Path 320" d="M358.23,290.3s-.528,7.49.8,9.883,1.386,13.077,1.386,13.077,15.184.7,25.985-2.972,33.5-6.062,33.5-6.062l-2.579-23.238s-18.78-.193-29.741,4.982S358.23,290.3,358.23,290.3Z" transform="translate(-329.526 -263.981)" fill="#8dd070"/>
  <ellipse id="Ellipse_39" data-name="Ellipse 39" cx="3.942" cy="8.455" rx="3.942" ry="8.455" transform="translate(51.881 25.763) rotate(-7.1)" opacity="0.1"/>
  <path id="Path_321" data-name="Path 321" d="M326.6,130.66s-20.234,5.121-29.776,14.135S267.2,158.077,267.2,158.077s2.646,8.684,5.094,11.033,7.09,14.506,7.09,14.506,16.593-3.518,26.6-10.779S339.334,156.4,339.334,156.4Z" transform="translate(-248.102 -129.361)" opacity="0.2"/>
  <path id="Path_322" data-name="Path 322" d="M264.29,145.646s2.645,8.685,5.091,11.034,7.09,14.5,7.09,14.5,16.6-3.517,26.608-10.778,33.345-16.429,33.345-16.429l-12.73-25.748s-20.233,5.121-29.775,14.135S264.29,145.646,264.29,145.646Z" transform="translate(-245.496 -118.23)" fill="#8dd070"/>
  <path id="Path_323" data-name="Path 323" d="M264.29,145.646s2.645,8.685,5.091,11.034,7.09,14.5,7.09,14.5,16.6-3.517,26.608-10.778,33.345-16.429,33.345-16.429l-12.73-25.748s-20.233,5.121-29.775,14.135S264.29,145.646,264.29,145.646Z" transform="translate(-245.496 -118.23)" opacity="0.1"/>
  <path id="Path_324" data-name="Path 324" d="M308,168.495s1.8,7.292,3.792,9.162,5.33,12.019,5.33,12.019,14.667-3.99,23.819-10.8,30.024-16.039,30.024-16.039L361.38,141.5s-17.933,5.578-26.777,13.867S308,168.495,308,168.495Z" transform="translate(-284.638 -139.068)" fill="#8dd070"/>
  <ellipse id="Ellipse_40" data-name="Ellipse 40" cx="3.942" cy="8.455" rx="3.942" ry="8.455" transform="translate(45.252 21.783) rotate(-24.97)" opacity="0.1"/>
  <path id="Path_325" data-name="Path 325" d="M212.338,380.855v36.056a3.117,3.117,0,0,1-3.119,3.117H155.606a3.118,3.118,0,0,1-3.116-3.117V377.22a5.506,5.506,0,0,0,3.116.522H209.22A3.119,3.119,0,0,1,212.338,380.855Z" transform="translate(-145.38 -350.153)" opacity="0.1"/>
  <path id="Path_326" data-name="Path 326" d="M212.338,385.236v36.056a3.119,3.119,0,0,1-3.119,3.118H155.606a3.118,3.118,0,0,1-3.116-3.118V381.6a5.523,5.523,0,0,0,3.116.523H209.22A3.119,3.119,0,0,1,212.338,385.236Z" transform="translate(-145.38 -354.075)" fill="#504f60"/>
  <path id="Path_327" data-name="Path 327" d="M578.468,543.935v11.531H567.286a5.766,5.766,0,1,1,0-11.531Z" transform="translate(-511.663 -499.445)" opacity="0.1"/>
  <path id="Path_328" data-name="Path 328" d="M579.928,541v11.533H568.746a5.766,5.766,0,1,1,0-11.531Z" transform="translate(-512.97 -496.817)" fill="#33323d"/>
  <circle id="Ellipse_41" data-name="Ellipse 41" cx="2.248" cy="2.248" r="2.248" transform="translate(54.064 48.008)" opacity="0.1"/>
  <circle id="Ellipse_42" data-name="Ellipse 42" cx="2.248" cy="2.248" r="2.248" transform="translate(54.216 47.703)" fill="#ca2233"/>
  <path id="Path_329" data-name="Path 329" d="M848.153,526.225c.089.963-.64,1.9-.427,2.839.046.2.133.392.164.6a2.291,2.291,0,0,1-.564,1.558l-2.738,4.017a2.5,2.5,0,0,1-.391.483,4.047,4.047,0,0,1-2,.557,3.414,3.414,0,0,0-1.338.592.086.086,0,0,0-.013.117,1.15,1.15,0,0,0,.995.467c.072.1,0,.234-.1.3-.147.1-.349.13-.378.378a.411.411,0,0,0,.05.251.779.779,0,0,0,.479.333,2.844,2.844,0,0,0,2.682-.912c.71-.693,1.219-1.568,1.915-2.273.386-.39.824-.724,1.221-1.1a13.981,13.981,0,0,0,2-2.591,2.892,2.892,0,0,0,.434-.882c.075-.321.04-.645.124-.955a3.521,3.521,0,0,1,.656-1.073,3.551,3.551,0,0,0,.746-2.311,2.215,2.215,0,0,0-1.352-1.918,1.2,1.2,0,0,0-.758-.046,1.8,1.8,0,0,0-.771.613l-.523.6a1.41,1.41,0,0,0-.3.46.482.482,0,0,0,.1.511" transform="translate(-761.785 -482.141)" fill="#a1616a"/>
  <path id="Path_330" data-name="Path 330" d="M848.153,526.225c.089.963-.64,1.9-.427,2.839.046.2.133.392.164.6a2.291,2.291,0,0,1-.564,1.558l-2.738,4.017a2.5,2.5,0,0,1-.391.483,4.047,4.047,0,0,1-2,.557,3.414,3.414,0,0,0-1.338.592.086.086,0,0,0-.013.117,1.15,1.15,0,0,0,.995.467c.072.1,0,.234-.1.3-.147.1-.349.13-.378.378a.411.411,0,0,0,.05.251.779.779,0,0,0,.479.333,2.844,2.844,0,0,0,2.682-.912c.71-.693,1.219-1.568,1.915-2.273.386-.39.824-.724,1.221-1.1a13.981,13.981,0,0,0,2-2.591,2.892,2.892,0,0,0,.434-.882c.075-.321.04-.645.124-.955a3.521,3.521,0,0,1,.656-1.073,3.551,3.551,0,0,0,.746-2.311,2.215,2.215,0,0,0-1.352-1.918,1.2,1.2,0,0,0-.758-.046,1.8,1.8,0,0,0-.771.613l-.523.6a1.41,1.41,0,0,0-.3.46.482.482,0,0,0,.1.511" transform="translate(-761.785 -482.141)" opacity="0.05"/>
  <path id="Path_331" data-name="Path 331" d="M910.225,767.612a3.17,3.17,0,0,1-2.038.3c-.112-.014-.245-.022-.313.065-.1.125.019.313.146.411a3.016,3.016,0,0,0,1.4.576,9.214,9.214,0,0,0,1.369.091,23.153,23.153,0,0,0,3.742-.137.529.529,0,0,0,.209-.061.383.383,0,0,0,.155-.235.933.933,0,0,0-.325-.89,2.727,2.727,0,0,0-.873-.468l-1.087-.423a2.792,2.792,0,0,0-.941-.342C911.149,766.538,910.657,767.359,910.225,767.612Z" transform="translate(-821.784 -698.749)" fill="#3f3d56"/>
  <path id="Path_332" data-name="Path 332" d="M910.225,767.612a3.17,3.17,0,0,1-2.038.3c-.112-.014-.245-.022-.313.065-.1.125.019.313.146.411a3.016,3.016,0,0,0,1.4.576,9.214,9.214,0,0,0,1.369.091,23.153,23.153,0,0,0,3.742-.137.529.529,0,0,0,.209-.061.383.383,0,0,0,.155-.235.933.933,0,0,0-.325-.89,2.727,2.727,0,0,0-.873-.468l-1.087-.423a2.792,2.792,0,0,0-.941-.342C911.149,766.538,910.657,767.359,910.225,767.612Z" transform="translate(-821.784 -698.749)" opacity="0.05"/>
  <path id="Path_333" data-name="Path 333" d="M930.925,586.241a2.892,2.892,0,0,0-.809,2.042,4.547,4.547,0,0,0,.451,1.127,7.957,7.957,0,0,1,.456,1.584c.169.788.34,1.578.443,2.379a39.52,39.52,0,0,1-.488,4.43.936.936,0,0,1-.191.615c-.06.063-.139.113-.166.194a.332.332,0,0,0,.037.23,2.529,2.529,0,0,0,1.359,1.248,10.745,10.745,0,0,0,2.62.689.521.521,0,0,0,.247-.032.48.48,0,0,0,.19-.218c.455-.87.018-3.961.024-4.942.006-.818.2-1.631.164-2.449-.029-.656-.209-1.3-.269-1.952a11.524,11.524,0,0,1,.289-3.209c.151-.813.3-1.626.5-2.429a4.663,4.663,0,0,1,.523-1.41c.209-.338.5-.62.746-.941a4.246,4.246,0,0,0,.836-3.108,8.142,8.142,0,0,0-1.7.454,5.309,5.309,0,0,0-1.52.977,12.77,12.77,0,0,0-.957,1.184q-.668.814-1.319,1.64Q931.638,585.285,930.925,586.241Z" transform="translate(-841.723 -531.806)" fill="#464353"/>
  <path id="Path_334" data-name="Path 334" d="M930.925,585.935a2.894,2.894,0,0,0-.809,2.042,4.539,4.539,0,0,0,.451,1.128,7.945,7.945,0,0,1,.456,1.583c.169.789.34,1.579.443,2.379a39.495,39.495,0,0,1-.488,4.43.939.939,0,0,1-.191.616c-.06.062-.139.112-.166.193a.331.331,0,0,0,.037.23,2.56,2.56,0,0,0,1.359,1.254,10.1,10.1,0,0,0,2.62.49.521.521,0,0,0,.247-.032.472.472,0,0,0,.19-.217c.455-.87.018-3.762.024-4.745.006-.819.2-1.631.164-2.45-.029-.656-.209-1.3-.269-1.951a11.529,11.529,0,0,1,.289-3.211c.151-.812.3-1.625.5-2.429a4.663,4.663,0,0,1,.523-1.41c.209-.338.5-.62.746-.941a4.243,4.243,0,0,0,.836-3.108,8.15,8.15,0,0,0-1.7.454,5.334,5.334,0,0,0-1.52.978,12.6,12.6,0,0,0-.957,1.183q-.668.814-1.319,1.641Q931.638,584.979,930.925,585.935Z" transform="translate(-841.723 -531.537)" opacity="0.05"/>
  <circle id="Ellipse_43" data-name="Ellipse 43" cx="2.536" cy="2.536" r="2.536" transform="translate(81.631 36.104)" fill="#a1616a"/>
  <path id="Path_335" data-name="Path 335" d="M890.96,482.793a3.285,3.285,0,0,0,2.106,1.469l-.191.7a6.588,6.588,0,0,1-1.623,3.284,1.527,1.527,0,0,0-.257-1.187,4.477,4.477,0,0,0-.861-.9l-1.46-1.265a.44.44,0,0,1-.1-.123.371.371,0,0,1,0-.278,3.389,3.389,0,0,1,1.15-1.331,3.986,3.986,0,0,0,.578-.673C890.588,482.067,890.768,482.485,890.96,482.793Z" transform="translate(-804.508 -444.259)" fill="#a1616a"/>
  <path id="Path_336" data-name="Path 336" d="M852.432,446.121l-.057-.477c.4.1.781-.236,1.037-.588s.493-.767.883-.914a1.829,1.829,0,0,1,1.428.343,4.514,4.514,0,0,0,1.638.533,1.076,1.076,0,0,1,.271.044.942.942,0,0,1,.478.81,3.169,3.169,0,0,0,.177.991c.1.227.3.4.418.619.314.6.01,1.42.338,2.009l-.813-.745c-.074-.068-.179-.139-.261-.081-.065.046-.07.145-.1.225a.427.427,0,0,1-.579.209,1.66,1.66,0,0,1-.523-.473,3.171,3.171,0,0,0-1.29-.978,1.655,1.655,0,0,0-1.359.09c-.379.214-.657.714-1.122.732-.638.024-.9-1.163-1.2-1.632a.575.575,0,0,0,.167-.719C852.01,446.1,852.423,446.048,852.432,446.121Z" transform="translate(-771.606 -410.031)" fill="#464353"/>
  <path id="Path_337" data-name="Path 337" d="M550.611,316.52a4.93,4.93,0,0,0-.563.592,1.184,1.184,0,0,0-.259.76.389.389,0,0,0,.073.223.188.188,0,0,0,.209.064.282.282,0,0,0,.1-.092,5.037,5.037,0,0,1,.351-.38c.045-.045.1-.092.165-.075a.176.176,0,0,1,.071.047.481.481,0,0,1,.147.23.542.542,0,0,1-.162.445,1.141,1.141,0,0,0-.273.4.179.179,0,0,0,0,.13.2.2,0,0,0,.082.069,1.166,1.166,0,0,0,.987.065c.209-.085.4-.23.61-.305a1.411,1.411,0,0,0,.27-.1.56.56,0,0,0,.239-.358,1.48,1.48,0,0,0,.016-.44,5.062,5.062,0,0,0-.36-1.654.209.209,0,0,0-.061-.088.193.193,0,0,0-.1-.028,2.486,2.486,0,0,0-.965-.066.682.682,0,0,0-.228.2C550.913,316.211,550.611,316.45,550.611,316.52Z" transform="translate(-501.157 -295.259)" fill="#a1616a"/>
  <path id="Path_338" data-name="Path 338" d="M524.7,235.721c0-.255-.314-.871.185-.911,0-.273-.386-.442-.313-.732.023-.1.1-.175.114-.273.031-.279-.472-.431-.389-.7.031-.1.142-.165.166-.269.056-.241-.375-.349-.384-.6,0-.084.047-.162.043-.246,0-.1-.091-.184-.141-.275-.131-.233-.067-.594-.305-.714.158.014.209-.221.144-.364s-.2-.268-.2-.426a.645.645,0,0,0,0-.173c-.044-.153-.294-.165-.336-.314a1.339,1.339,0,0,1-.005-.171c-.017-.118-.138-.193-.252-.227a1.028,1.028,0,0,1-.336-.12c-.073-.055-.158-.147-.236-.1-.029.018-.044.051-.066.076-.094.11-.274.062-.392-.019a1.61,1.61,0,0,1-.6-1.077c-.074-.415-.072-.843-.165-1.254a2.675,2.675,0,0,0-.113-.376,1.975,1.975,0,0,1-.176-.374c-.019-.24.479-.076.668-.052a2.975,2.975,0,0,1,.542.1,5.8,5.8,0,0,1,.555.243c.755.333,1.666.374,2.272.934a1.906,1.906,0,0,0,.627.509,2.841,2.841,0,0,1,.351.091c.287.135.332.516.489.792a1.563,1.563,0,0,1,.129.23.886.886,0,0,1,.042.293l.022.724a26.713,26.713,0,0,1-.059,3.636,2.983,2.983,0,0,0,.014,1.19c.031.1.075.2.1.308a1.878,1.878,0,0,1,.04.376l.017.469a.147.147,0,0,1-.023.1.151.151,0,0,1-.126.03c-.653-.059-1.314-.426-1.93-.2" transform="translate(-475.328 -214.695)" fill="#464353"/>
  <ellipse id="Ellipse_44" data-name="Ellipse 44" cx="7.73" cy="1.117" rx="7.73" ry="1.117" transform="translate(71.448 54.846)" fill="#504f60"/>
  <path id="Path_339" data-name="Path 339" d="M699.707,225.789c-.136-.582-.221-1.093-.221-1.093a2.253,2.253,0,0,0-.253-1.109v-.159h0v-1.171a3.99,3.99,0,0,1,.3-.613,4.617,4.617,0,0,0,0-1.716,7.593,7.593,0,0,1-.592-3.107c.189-1.206-1.6-5.355-1.6-5.355a5.284,5.284,0,0,1,.168-1.185.9.9,0,0,0,.023-.249v-.021a9.206,9.206,0,0,0-.656-2.286l.085-2.841a8.351,8.351,0,0,0-.253-3.924c-.229-.785-.375-1.413-.468-1.9-.01-.054-.021-.1-.029-.158,1.347-.209,2.377-.376,2.377-.376s-.782-3.27-1.31-3.843a7.552,7.552,0,0,1-.95-2.371s-.275-2.309.169-2.984a4.487,4.487,0,0,0,.507-1.839s1.013-.732,1.14-1.063a5.423,5.423,0,0,0,.338-1.451c0-.388-.126-.732-.085-.941s-.3-.981-.126-1.349a.991.991,0,0,0,.067-.354.05.05,0,0,0,0-.01h0a4.971,4.971,0,0,0-.089-.959,2.723,2.723,0,0,0-1-.536l-.022-.088-.058-.23a1.1,1.1,0,0,0-.1-.059v-.084l-.009-.332.159-.746c.314-1.3-1.42-1.491-1.42-1.491a.914.914,0,0,0-.491-.431c-.348-.122-.058,1.952.1,2.09a8.175,8.175,0,0,1,.684,1.07h0l.029.052a.734.734,0,0,0-.079.084l.066.45.01.069a1.869,1.869,0,0,0-.277.471,1.017,1.017,0,0,1,.254.732,2.343,2.343,0,0,0,.1.9c-.019-.022-.241-.262-.464-.2s-.844.246-.844.246-.464.082-.418.184-.313.552-.313.552l-1.248-1.183c-.013-.036-.026-.071-.037-.1a2.87,2.87,0,0,1-.1-.523,2.853,2.853,0,0,0,.4-.126.861.861,0,0,0,.345-.222,1.336,1.336,0,0,0,.2-.538,7.916,7.916,0,0,1,.463-1.033,3.356,3.356,0,0,0,.235-1.858,1.212,1.212,0,0,0-.191-.543c-.2-.28-.574-.394-.842-.618s-.442-.565-.756-.732a1.5,1.5,0,0,0-.947-.082,5.1,5.1,0,0,0-1.769.644.921.921,0,0,1-.591.194.772.772,0,0,1-.426-.314.114.114,0,0,1,.005-.017.1.1,0,0,1-.013-.017,2.205,2.205,0,0,0-.194.934,1.148,1.148,0,0,0,.006.149v.1h0a.238.238,0,0,1-.009.066.476.476,0,0,1-.117.168,1.13,1.13,0,0,0-.1.139.174.174,0,0,1,.017-.051.744.744,0,0,0-.13.394.4.4,0,0,0,.094.282,1.361,1.361,0,0,0,.2.163,2.377,2.377,0,0,0-.038.418,2.415,2.415,0,0,0,1.177,2.06c.015.034.028.07.042.1a2.976,2.976,0,0,1,.227,1.359.641.641,0,0,1-.015.1c-.005.032-.031.034-.045.052h0s-2.062.021-2.547-.418-1.225,1.073-1.225,1.073-.739.143-.887,0-1.013-.02-1.013-.02a1.863,1.863,0,0,0-1.289-.47,3.784,3.784,0,0,0-.941-.523h0l-.023-.008h0A1.053,1.053,0,0,0,681.6,183a9.382,9.382,0,0,1-1.31-1.288c-.3-.451-1.7-2.118-1.71-2.126v-.081l-.016-.242a.869.869,0,0,1-.126.01c-.007-.024-.018-.052-.028-.085a4.68,4.68,0,0,0-.3-.687s0-.306.089-.384a5.282,5.282,0,0,0-.037-1.2s-.913-2.135-1.732-.541c0,0-1.547,1.032-.249,2.233,0,0,.523.251.591.449.048.129.224.489.342.732l.053.1-.015.013.019.2.008.077c-.245.139-.411.277-.37.38a2.286,2.286,0,0,1,.147.552,14.708,14.708,0,0,1,2.028,3.209s4.815,2.861,6.4,3.065l-.28,1.427a11.4,11.4,0,0,0-.063,1.165c.021.306-.19,1.7-.19,1.7a11.343,11.343,0,0,1-.507,2.331,3.926,3.926,0,0,0-.19,1.512,10.335,10.335,0,0,1-.313,1.737,4.437,4.437,0,0,0-.064,1.738s-.8,1.839,1.119.593c0,0,.941-.059,2.03-.1v.1c0,.14,0,.292-.007.45-.015,1.053-.021,2.508.027,3.6.085,1.942.676,5.785.676,5.785v1.934a2.64,2.64,0,0,0-.056.552,3.591,3.591,0,0,0,.523,1.932l.148,1.288a5.021,5.021,0,0,1,.353,1.359.71.71,0,0,1-.015.122.819.819,0,0,0-.017.2,11.122,11.122,0,0,0,.332,1.986s.021,1.41.232,1.492c.181.07-.241.812-.367,1.025a.293.293,0,0,1-.007-.04l-.026.042a1,1,0,0,0-.066.357.512.512,0,0,0,.234.5c.4.246.617.449.276.531a3.538,3.538,0,0,0-.372.078.16.16,0,0,0-.018-.047.224.224,0,0,0-.139.247,1.045,1.045,0,0,0,.124.474,5.174,5.174,0,0,0,.572,1.045l.162-.018a.788.788,0,0,1-.094.175.673.673,0,0,1-.238.209.739.739,0,0,1-.289.1.815.815,0,0,0-.6.291.623.623,0,0,0,.073.97l1.51.523s2.6.338,2.46-.246-.222-1.093-.222-1.093a2.3,2.3,0,0,0-.209-1.034,1.339,1.339,0,0,0-.092-.153l.092-.009a4.785,4.785,0,0,1,.443-1.533c.059-.056.072-.1.059-.134.026-.07-.041-.111-.125-.135l-.019.051a1.229,1.229,0,0,0-.252-.028s-.085-.674.19-.92a.26.26,0,0,0,.053-.2,1.079,1.079,0,0,0-.029-.275l-.009.017a9.9,9.9,0,0,0-.606-1.585,1.937,1.937,0,0,1,.148-.858,21.623,21.623,0,0,0-.022-3.332,10.089,10.089,0,0,0-.126-2.186,2.454,2.454,0,0,1,.232-1.513v-.054l-.024-.235a.059.059,0,0,0,0,.015c-.043-.4-.123-1.111-.183-1.441-.085-.47.022-2.717.022-2.717l.379-.961.676,1.656.718,2.207a1.885,1.885,0,0,1,.364.941v.069a1.213,1.213,0,0,0-.008.147,1.313,1.313,0,0,0,.218.787,3.4,3.4,0,0,0,.486,1.307,1.173,1.173,0,0,1,.3.776,13.566,13.566,0,0,0,.523,1.777,2.642,2.642,0,0,1,.148,1.027h0v.054s.05.541.048.995v.162a.045.045,0,0,0,0-.012,1.579,1.579,0,0,1-.044.368l-.006.021a.27.27,0,0,1,.007-.076,3.842,3.842,0,0,0-.1.941,2.436,2.436,0,0,0,.4,1.568c.571.654.929.573.929.573s-.274.817-.612.981a.155.155,0,0,0-.035.023.348.348,0,0,0-.008-.048.4.4,0,0,0-.1.305,2.192,2.192,0,0,0,.418,1.211.682.682,0,0,0,.285.167.456.456,0,0,1-.053.032,1.135,1.135,0,0,1-.116.055.609.609,0,0,1-.172.045.805.805,0,0,0-.6.291.622.622,0,0,0,.073.969l1.51.523S699.843,226.371,699.707,225.789Z" transform="translate(-613.88 -169.771)" fill="url(#linear-gradient)"/>
  <path id="Path_340" data-name="Path 340" d="M795.993,638.926l-1.463-.523a.635.635,0,0,1-.071-.97.781.781,0,0,1,.579-.29.7.7,0,0,0,.279-.1.668.668,0,0,0,.232-.209,1.08,1.08,0,0,0,.166-.565s1.605-.47,2.044,0a1.189,1.189,0,0,1,.194.285,2.387,2.387,0,0,1,.209,1.034s.082.51.214,1.093S795.993,638.926,795.993,638.926Z" transform="translate(-720.085 -581.942)" fill="#2d293d"/>
  <path id="Path_341" data-name="Path 341" d="M864.433,632.008l-1.463-.523a.634.634,0,0,1-.071-.969.773.773,0,0,1,.578-.291.541.541,0,0,0,.167-.045,1.105,1.105,0,0,0,.113-.055.925.925,0,0,0,.4-.777s1.6-.47,2.044,0a1.155,1.155,0,0,1,.154.209,2.322,2.322,0,0,1,.245,1.11s.082.511.209,1.093S864.433,632.008,864.433,632.008Z" transform="translate(-781.372 -575.745)" fill="#2d293d"/>
  <path id="Path_342" data-name="Path 342" d="M808.769,636.257a1.192,1.192,0,0,1,.194.285h0l-2.4.279a1.08,1.08,0,0,0,.166-.565S808.33,635.786,808.769,636.257Z" transform="translate(-731.094 -581.931)" opacity="0.1"/>
  <path id="Path_343" data-name="Path 343" d="M874.409,629.578v.45c-.374.616-2.183.481-2.709.172a1.078,1.078,0,0,0,.113-.055.926.926,0,0,0,.4-.777s1.6-.47,2.044,0A1.159,1.159,0,0,1,874.409,629.578Z" transform="translate(-789.426 -575.763)" opacity="0.1"/>
  <path id="Path_344" data-name="Path 344" d="M795.669,409.844a4.1,4.1,0,0,0-.285.613v1.615c-.41.674-2.534.449-2.822.082s-.587-1.325-.264-1.491.593-.981.593-.981-.348.082-.9-.573a3.38,3.38,0,0,1-.285-2.452,7.243,7.243,0,0,0,0-1.512,3.038,3.038,0,0,0-.142-1.084,13.5,13.5,0,0,1-.511-1.777,1.2,1.2,0,0,0-.286-.776,3.5,3.5,0,0,1-.47-1.308,1.341,1.341,0,0,1-.2-.879,1.785,1.785,0,0,0-.348-1.063l-.7-2.208-.654-1.655-.368.96s-.1,2.248-.02,2.717.209,1.717.209,1.717a2.52,2.52,0,0,0-.225,1.512,10.32,10.32,0,0,1,.117,2.188,22.3,22.3,0,0,1,.02,3.331,2,2,0,0,0-.143.859s.836,1.8.573,2.043-.184.92-.184.92.572,0,.327.246a4.923,4.923,0,0,0-.43,1.533l-2.472.289a5.14,5.14,0,0,1-.553-1.045c-.327-.76.061-.674.39-.757s.121-.285-.268-.531-.163-.8-.163-.8.593-1,.388-1.083-.225-1.492-.225-1.492a9.079,9.079,0,0,1-.306-2.126,4.066,4.066,0,0,0-.327-1.532l-.143-1.288a3.543,3.543,0,0,1-.449-2.433V397.64s-.573-3.842-.654-5.784c-.052-1.244-.038-2.941-.021-4,.01-.594.021-.988.021-.988l8.829-.92a7.379,7.379,0,0,0,.16,1.312c.091.485.232,1.113.454,1.9a8.624,8.624,0,0,1,.246,3.923l-.083,2.842a7.235,7.235,0,0,1,.613,2.554,5.451,5.451,0,0,0-.165,1.187s1.737,4.149,1.553,5.355a7.8,7.8,0,0,0,.572,3.107A4.7,4.7,0,0,1,795.669,409.844Z" transform="translate(-710.401 -357.971)" fill="#464353"/>
  <path id="Path_345" data-name="Path 345" d="M852.05,509.628l2.688-.358S853.215,510.824,852.05,509.628Z" transform="translate(-771.83 -468.403)" opacity="0.05"/>
  <path id="Path_346" data-name="Path 346" d="M869.85,484.14s.092.951-.49,1.308C869.36,485.448,870.4,485.285,869.85,484.14Z" transform="translate(-787.331 -445.899)" opacity="0.1"/>
  <path id="Path_347" data-name="Path 347" d="M845.245,455.2s-2.247,1.85-3.064,1.7S845.245,455.2,845.245,455.2Z" transform="translate(-762.891 -419.984)" opacity="0.1"/>
  <path id="Path_348" data-name="Path 348" d="M805.1,521s-1.707.388-1.758,1.073S805.1,521,805.1,521Z" transform="translate(-728.21 -478.907)" opacity="0.1"/>
  <path id="Path_349" data-name="Path 349" d="M807.918,602.56s-2.411.449-1.726.756a11.7,11.7,0,0,0,1.809.552S808.779,603.908,807.918,602.56Z" transform="translate(-730.654 -551.943)" opacity="0.05"/>
  <g id="Group_203" data-name="Group 203" transform="translate(73.051 28.835)" opacity="0.05">
    <path id="Path_350" data-name="Path 350" d="M799.922,611.459a.476.476,0,0,1-.221-.349l-.025.043s-.225.552.164.8c.044.028.087.056.125.084.072-.014.149-.024.224-.043C800.519,611.908,800.311,611.7,799.922,611.459Z" transform="translate(-797.923 -588.435)"/>
    <path id="Path_351" data-name="Path 351" d="M831.333,609.3c.067-.061.065-.217.024-.418a1.175,1.175,0,0,0-.137.591A.511.511,0,0,1,831.333,609.3Z" transform="translate(-826.227 -586.438)"/>
    <path id="Path_352" data-name="Path 352" d="M827.353,515.59a2.789,2.789,0,0,0-.163.751,3.036,3.036,0,0,1,.187-.516Z" transform="translate(-822.619 -502.897)"/>
    <path id="Path_353" data-name="Path 353" d="M881.2,503.414a.967.967,0,0,0,.022-.224c-.03.153-.051.294-.067.418C881.174,503.544,881.188,503.484,881.2,503.414Z" transform="translate(-870.948 -491.793)"/>
    <path id="Path_354" data-name="Path 354" d="M827.708,581.225a1.313,1.313,0,0,0,.061-.455,1.542,1.542,0,0,0-.118.574.545.545,0,0,1,.057-.119Z" transform="translate(-823.031 -561.265)"/>
    <path id="Path_355" data-name="Path 355" d="M802.9,622a8.1,8.1,0,0,0-.281,1.254l-2.472.285a5.142,5.142,0,0,1-.553-1.045,1.9,1.9,0,0,1-.07-.18c-.148.068-.209.222-.013.67a5.22,5.22,0,0,0,.554,1.045l2.472-.286a4.919,4.919,0,0,1,.428-1.533C803.093,622.092,803.015,622.03,802.9,622Z" transform="translate(-797.723 -598.187)"/>
    <path id="Path_356" data-name="Path 356" d="M785.366,414.283s.02,1.41.225,1.491h0c.1-.233.173-.455.081-.491-.209-.082-.225-1.492-.225-1.492a9.079,9.079,0,0,1-.306-2.126,4.066,4.066,0,0,0-.327-1.532l-.143-1.288a3.543,3.543,0,0,1-.449-2.433v-1.986s-.573-3.842-.654-5.784c-.052-1.244-.038-2.941-.021-4,0-.191.006-.361.009-.5l-.07.007s-.011.393-.021.988c-.017,1.059-.032,2.756.021,4,.082,1.942.653,5.785.653,5.785V406.9a3.545,3.545,0,0,0,.45,2.432l.142,1.288a4.09,4.09,0,0,1,.327,1.533A9.1,9.1,0,0,0,785.366,414.283Z" transform="translate(-783.448 -394.14)"/>
    <path id="Path_357" data-name="Path 357" d="M867.235,623.141a2.39,2.39,0,0,1-.392-.971c-.252.228.038,1.112.314,1.463.285.368,2.411.593,2.822-.082v-.389A2.952,2.952,0,0,1,867.235,623.141Z" transform="translate(-858.041 -598.339)"/>
    <path id="Path_358" data-name="Path 358" d="M898.686,609.244a4.13,4.13,0,0,0-.286.613v.289a4.3,4.3,0,0,1,.209-.41,1.254,1.254,0,0,0,.09-.507Z" transform="translate(-886.387 -586.751)"/>
    <path id="Path_359" data-name="Path 359" d="M862.589,586.57a4.027,4.027,0,0,0,.2-.486s-.348.081-.9-.573a2.9,2.9,0,0,1-.367-1.962,3.371,3.371,0,0,0,.285,2.453A1.456,1.456,0,0,0,862.589,586.57Z" transform="translate(-853.27 -563.755)"/>
    <path id="Path_360" data-name="Path 360" d="M831.49,472.752a10.872,10.872,0,0,1,.041,1.211,1.657,1.657,0,0,1,.042-.189,7.1,7.1,0,0,0,0-1.512,3.022,3.022,0,0,0-.143-1.084,13.189,13.189,0,0,1-.506-1.779,1.2,1.2,0,0,0-.286-.777,3.5,3.5,0,0,1-.47-1.308,1.345,1.345,0,0,1-.209-.879,1.78,1.78,0,0,0-.347-1.063l-.7-2.207-.654-1.655-.369.962s0,.121-.013.314l.3-.781.654,1.652.695,2.207a1.78,1.78,0,0,1,.347,1.063,1.345,1.345,0,0,0,.209.879,3.485,3.485,0,0,0,.47,1.308,1.2,1.2,0,0,1,.285.776,13.445,13.445,0,0,0,.511,1.777A3.021,3.021,0,0,1,831.49,472.752Z" transform="translate(-823.236 -454.469)"/>
  </g>
  <path id="Path_361" data-name="Path 361" d="M861.629,192.785l-.154.746.009.332.006.245-.853.088-.095-.177h0a7.924,7.924,0,0,0-.662-1.07c-.158-.132-.439-2.207-.1-2.084a.892.892,0,0,1,.475.43S861.931,191.487,861.629,192.785Z" transform="translate(-778.609 -183.269)" fill="#a1616a"/>
  <path id="Path_362" data-name="Path 362" d="M869.4,218.989l-.853.088-.1-.177h0a.752.752,0,0,1,.941-.155Z" transform="translate(-786.516 -208.15)" opacity="0.1"/>
  <path id="Path_363" data-name="Path 363" d="M869.192,220.057l-1.124.26-.024-.167-.064-.45a.774.774,0,0,1,1.089-.148l.056.229Z" transform="translate(-786.095 -208.814)" fill="#6c63ff"/>
  <path id="Path_364" data-name="Path 364" d="M682.064,179.323l-1.2.644-.1-.226c-.114-.239-.284-.6-.331-.732-.071-.2-.572-.449-.572-.449a1.386,1.386,0,0,1,.24-2.233c.792-1.594,1.672.541,1.672.541a5.416,5.416,0,0,1,.037,1.2c-.087.075-.087.384-.087.384a4.713,4.713,0,0,1,.289.687C682.044,179.253,682.064,179.323,682.064,179.323Z" transform="translate(-617.182 -169.726)" fill="#a1616a"/>
  <path id="Path_365" data-name="Path 365" d="M694.1,208.434l-1.2.644-.1-.226c.169-.142.77-.627.968-.607a1.444,1.444,0,0,0,.284.007C694.076,208.364,694.1,208.434,694.1,208.434Z" transform="translate(-629.214 -198.837)" opacity="0.1"/>
  <path id="Path_366" data-name="Path 366" d="M694.5,209.5l-1.349.665-.027-.289-.019-.2s.782-.67,1.013-.644a1.227,1.227,0,0,0,.352,0l.016.242Z" transform="translate(-629.492 -199.543)" fill="#fff"/>
  <path id="Path_367" data-name="Path 367" d="M805.4,217.646s-5.882.664-4.782.306a1.47,1.47,0,0,0,1.133-1.275,3.062,3.062,0,0,0-.218-1.359,5.922,5.922,0,0,0-.523-1.063s4.494-2.473,3.6-.225a3.621,3.621,0,0,0-.255,1.065,3.008,3.008,0,0,0,.116,1.079A3.211,3.211,0,0,0,805.4,217.646Z" transform="translate(-725.649 -203.174)" fill="#a1616a"/>
  <path id="Path_368" data-name="Path 368" d="M809.133,214a3.625,3.625,0,0,0-.255,1.065,2.067,2.067,0,0,1-1.484.332,2.655,2.655,0,0,1-1.331-.11,5.934,5.934,0,0,0-.523-1.063S810.033,211.753,809.133,214Z" transform="translate(-730.18 -203.147)" opacity="0.1"/>
  <circle id="Ellipse_45" data-name="Ellipse 45" cx="2.432" cy="2.432" r="2.432" transform="translate(74.702 7.545)" fill="#a1616a"/>
  <path id="Path_369" data-name="Path 369" d="M805.4,241.9s-5.882.664-4.782.306a1.47,1.47,0,0,0,1.133-1.275,3.28,3.28,0,0,1,1.254-.668,1.76,1.76,0,0,1,1.066-.018,1.515,1.515,0,0,1,.388.18A3.211,3.211,0,0,0,805.4,241.9Z" transform="translate(-725.649 -227.428)" opacity="0.1"/>
  <path id="Path_370" data-name="Path 370" d="M869.739,223.1l-1.124.26-.024-.167a1,1,0,0,1,1.082-.37Z" transform="translate(-786.641 -211.856)" fill="#fff" opacity="0.1"/>
  <path id="Path_371" data-name="Path 371" d="M694.656,211.578l-1.349.665-.027-.289a9.835,9.835,0,0,1,1.359-.6Z" transform="translate(-629.653 -201.618)" opacity="0.1"/>
  <path id="Path_372" data-name="Path 372" d="M792.61,387.282a36.291,36.291,0,0,1-6.033.671,15.071,15.071,0,0,0-2.976-.075c.01-.594.021-.988.021-.988l8.829-.92A7.371,7.371,0,0,0,792.61,387.282Z" transform="translate(-710.533 -357.989)" opacity="0.1"/>
  <path id="Path_373" data-name="Path 373" d="M710.969,231.065s-7.5,1.288-8.305,1.045a32.637,32.637,0,0,0-4.938.02c-1.86,1.247-1.084-.593-1.084-.593a4.574,4.574,0,0,1,.062-1.737,10.615,10.615,0,0,0,.308-1.739,4.049,4.049,0,0,1,.184-1.513,11.659,11.659,0,0,0,.491-2.329s.2-1.39.184-1.7.061-1.165.061-1.165l.267-1.431c-1.533-.2-6.193-3.065-6.193-3.065a14.773,14.773,0,0,0-1.962-3.208,2.365,2.365,0,0,0-.143-.552c-.122-.327,1.717-.981,1.717-.981s1.369,1.672,1.655,2.126a9.116,9.116,0,0,0,1.267,1.288.985.985,0,0,1,.449.059l.024.007h0a3.643,3.643,0,0,1,.914.523,1.776,1.776,0,0,1,1.247.47s.836-.123.981.02.858,0,.858,0,.715-1.512,1.185-1.073,2.465.418,2.465.418a2.886,2.886,0,0,1,1.317-.732,1.767,1.767,0,0,1,1.066-.018,1.352,1.352,0,0,1,.418.209l1.213,1.185s.347-.45.306-.552.409-.184.409-.184.593-.184.817-.246.431.182.449.2a2.444,2.444,0,0,1-.1-.9,1.062,1.062,0,0,0-.246-.732c.715-1.758,2.33-.286,2.33-.286a3.371,3.371,0,0,1,.021,1.328c-.163.368.163,1.144.122,1.349s.083.552.083.941a5.746,5.746,0,0,1-.327,1.451c-.118.327-1.1,1.063-1.1,1.063a4.615,4.615,0,0,1-.491,1.839c-.43.674-.16,2.98-.16,2.98a7.7,7.7,0,0,0,.92,2.371C710.214,227.8,710.969,231.065,710.969,231.065Z" transform="translate(-626.621 -202.308)" fill="#3f3d56"/>
  <path id="Path_374" data-name="Path 374" d="M778.172,254.019s-.225-.674-.43-.732a4.726,4.726,0,0,1-.593-.265l.132-.252s.767.209.89.436A1.734,1.734,0,0,1,778.172,254.019Z" transform="translate(-704.758 -238.709)" opacity="0.1"/>
  <path id="Path_375" data-name="Path 375" d="M731.68,245.874c-.041.209-1.86.388-1.86.388l.92-.922h0l.023.008h0A3.644,3.644,0,0,1,731.68,245.874Z" transform="translate(-662.374 -232.056)" opacity="0.1"/>
  <circle id="Ellipse_46" data-name="Ellipse 46" cx="0.163" cy="0.163" r="0.163" transform="translate(63.88 10.85)" fill="#575988"/>
  <circle id="Ellipse_47" data-name="Ellipse 47" cx="0.163" cy="0.163" r="0.163" transform="translate(64.089 11.177)" fill="#575988"/>
  <circle id="Ellipse_48" data-name="Ellipse 48" cx="0.163" cy="0.163" r="0.163" transform="translate(64.294 11.479)" fill="#575988"/>
  <circle id="Ellipse_49" data-name="Ellipse 49" cx="0.163" cy="0.163" r="0.163" transform="translate(64.508 11.805)" fill="#575988"/>
  <circle id="Ellipse_50" data-name="Ellipse 50" cx="0.133" cy="0.133" r="0.133" transform="translate(83.804 11.818)" fill="#575988"/>
  <circle id="Ellipse_51" data-name="Ellipse 51" cx="0.133" cy="0.133" r="0.133" transform="translate(83.825 12.12)" fill="#575988"/>
  <circle id="Ellipse_52" data-name="Ellipse 52" cx="0.133" cy="0.133" r="0.133" transform="translate(83.843 12.421)" fill="#575988"/>
  <path id="Path_376" data-name="Path 376" d="M787,317.719c-.02-.024,4.588,5.794,8.164,2.432C795.167,320.152,789.516,320.918,787,317.719Z" transform="translate(-713.578 -296.871)" opacity="0.1"/>
  <path id="Path_377" data-name="Path 377" d="M761.7,346.66s2.757.075,3.045.868v.826a.529.529,0,0,1-.513,0c-.278-.15-1.945-1-2.532-.589Z" transform="translate(-690.922 -322.787)" opacity="0.1"/>
  <path id="Path_378" data-name="Path 378" d="M762.19,346.66s2.637.072,2.913.829v.786a.506.506,0,0,1-.491,0c-.266-.142-1.859-.95-2.422-.561Z" transform="translate(-691.361 -322.787)" fill="#3f3d56"/>
  <path id="Path_379" data-name="Path 379" d="M776.1,289.38a8.869,8.869,0,0,0,1.069,1.834,7.2,7.2,0,0,0,1.672,1.617A32.411,32.411,0,0,1,776.1,289.38Z" transform="translate(-703.817 -271.493)" opacity="0.1"/>
  <path id="Path_380" data-name="Path 380" d="M767.47,258.73a4.722,4.722,0,0,0,1.645,2.66Z" transform="translate(-696.089 -244.046)" opacity="0.1"/>
  <path id="Path_381" data-name="Path 381" d="M760.368,260.645A2.194,2.194,0,0,0,761.9,263.1S761.074,262.825,760.368,260.645Z" transform="translate(-689.693 -245.761)" opacity="0.1"/>
  <path id="Path_382" data-name="Path 382" d="M875.9,247.9a13.8,13.8,0,0,1,1.224.92S876.486,247.857,875.9,247.9Z" transform="translate(-793.19 -234.346)" opacity="0.1"/>
  <path id="Path_383" data-name="Path 383" d="M798.9,187.746a.383.383,0,0,0,.418.379,4.862,4.862,0,0,0,2.195-.209.835.835,0,0,0,.334-.222,1.376,1.376,0,0,0,.194-.538,7.841,7.841,0,0,1,.448-1.033,3.458,3.458,0,0,0,.241-1.855,1.254,1.254,0,0,0-.186-.542c-.2-.281-.555-.4-.815-.619s-.427-.565-.732-.732a1.4,1.4,0,0,0-.918-.082,4.816,4.816,0,0,0-1.712.643.873.873,0,0,1-.573.194.766.766,0,0,1-.418-.323,2.263,2.263,0,0,0-.174,1.061.454.454,0,0,1-.005.16.481.481,0,0,1-.114.168.619.619,0,0,0-.116.764c.078.093.2.144.276.239.137.17.091.418.088.635a.328.328,0,0,0,.054.215.313.313,0,0,0,.3.072.817.817,0,0,1,.32-.03.536.536,0,0,1,.278.209A3.927,3.927,0,0,1,798.9,187.746Z" transform="translate(-722.423 -175.566)" fill="#2d293d"/>
  <g id="Group_204" data-name="Group 204" transform="translate(74.454 7.222)" opacity="0.1">
    <path id="Path_384" data-name="Path 384" d="M801.934,204.921a.837.837,0,0,1-.334.222,4.932,4.932,0,0,1-2.195.209.385.385,0,0,1-.419-.38,3.814,3.814,0,0,0-.62-1.438.537.537,0,0,0-.278-.214.858.858,0,0,0-.32.03.313.313,0,0,1-.3-.071.328.328,0,0,1-.054-.215c0-.219.049-.465-.088-.635-.076-.1-.2-.146-.276-.24A.476.476,0,0,1,797,201.7a.557.557,0,0,0-.035.651c.078.093.2.144.276.239.137.171.091.418.088.635a.325.325,0,0,0,.053.215.314.314,0,0,0,.3.072.816.816,0,0,1,.32-.03.536.536,0,0,1,.278.209,3.82,3.82,0,0,1,.62,1.439.523.523,0,0,0,.181.331.507.507,0,0,0,.23.05,4.848,4.848,0,0,0,2.195-.209.827.827,0,0,0,.334-.222.637.637,0,0,0,.1-.2A.052.052,0,0,1,801.934,204.921Z" transform="translate(-796.877 -200.198)"/>
    <path id="Path_385" data-name="Path 385" d="M799.941,188.509a.357.357,0,0,0,.074-.123.457.457,0,0,0,0-.16,2.266,2.266,0,0,1,.114-.88l-.014-.016a2.248,2.248,0,0,0-.175,1.06A.746.746,0,0,1,799.941,188.509Z" transform="translate(-799.615 -187.33)"/>
  </g>
  <path id="Path_386" data-name="Path 386" d="M812.08,248.423s3.038.4,3.311-.053" transform="translate(-736.037 -234.769)" opacity="0.1"/>
  <path id="Path_387" data-name="Path 387" d="M868.59,236.85s1.689,0,2.06.635" transform="translate(-786.641 -224.453)" opacity="0.1"/>
  <path id="Path_388" data-name="Path 388" d="M939.863,764.471a2.679,2.679,0,0,1-1.824.681c-.171,0-.409.032-.41.2a.288.288,0,0,0,.05.14,1.678,1.678,0,0,0,.941.739,3.327,3.327,0,0,0,1.138.072l1.113-.057c.209-.012.418-.022.627-.048s.437-.069.655-.1a8.571,8.571,0,0,1,1.621-.075.491.491,0,0,0,.4-.1c.086-.1.042-.3.009-.461-.067-.323,0-.662-.062-.986a1.73,1.73,0,0,0-1.136-1.21,2.389,2.389,0,0,0-1.864-.091A12.251,12.251,0,0,0,939.863,764.471Z" transform="translate(-848.466 -695.624)" fill="#3f3d56"/>
  <path id="Path_389" data-name="Path 389" d="M950.43,574.858c.1.467.551.825.563,1.3a2.034,2.034,0,0,1-.458,1.03,6.869,6.869,0,0,0-.467,1.058,16.145,16.145,0,0,1-1.371,2.728,2.183,2.183,0,0,0-.494,1.35,2.027,2.027,0,0,0,.237.646l.784,1.557a4.514,4.514,0,0,1,.4.983c.068.3.074.6.114.9.123.955.572,1.917.306,2.843-.023.079-.1.176-.168.12a2.978,2.978,0,0,1,.447,1.52,2.119,2.119,0,0,0,.007.855.935.935,0,0,1,.122.336,2.158,2.158,0,0,1-.045.231.509.509,0,0,0,.391.475c.21.07.439.065.651.128a4,4,0,0,1,1.045.717,2.225,2.225,0,0,0,1.2.392.3.3,0,0,0,.178-.035.288.288,0,0,0,.1-.215,1.2,1.2,0,0,0-.431-1.039.471.471,0,0,1-.16-.167.4.4,0,0,1-.015-.187,14.089,14.089,0,0,0-.046-2.571,3.9,3.9,0,0,1-.041-.818,3.345,3.345,0,0,0,.066-.68,3.614,3.614,0,0,0-.209-.652,4.7,4.7,0,0,1-.1-1.213,10.644,10.644,0,0,0-.344-2.09,1.581,1.581,0,0,0-.325-.755c-.163-.17-.426-.333-.365-.56a.662.662,0,0,1,.149-.223.894.894,0,0,0,.186-.681.306.306,0,0,0,.352-.165,5.51,5.51,0,0,0,2.757-3.135,1.032,1.032,0,0,1,.123-.28,1.262,1.262,0,0,1,.5-.327,3.834,3.834,0,0,0,1.326-1.352,2.39,2.39,0,0,0,.582-1.688l.032-1.228a.663.663,0,0,0-.023-.24.6.6,0,0,0-.133-.194,2.361,2.361,0,0,0-1.3-.7c-.334-.06-.676-.048-1.015-.076a12.617,12.617,0,0,0-1.961-.209,3.138,3.138,0,0,0-2.436,1.7C950.976,574.572,950.8,574.852,950.43,574.858Z" transform="translate(-857.927 -525.058)" fill="#464353"/>
  <path id="Path_390" data-name="Path 390" d="M905.014,495.1a1.372,1.372,0,0,1-.075.559.391.391,0,0,1-.459.235c.053-.12-.088-.257-.219-.242a.41.41,0,0,0-.29.249.925.925,0,0,0-.084.568,2.3,2.3,0,0,1,.144.713c-.029.2-.177.4-.1.586a.95.95,0,0,0,.189.227.64.64,0,0,1-.068.878l1.977.04a1.4,1.4,0,0,0,.246.962,6.062,6.062,0,0,0,4.519,2.95.393.393,0,0,0-.095.6.558.558,0,0,0,.635.037,4.522,4.522,0,0,0,.544-.408,1.672,1.672,0,0,1,1.117-.3c.248.024.488.1.737.117.732.039,1.359-.488,2.063-.7a4.763,4.763,0,0,0,1.526-.479.608.608,0,0,0,.284-.588.984.984,0,0,0-.209-.346,5.979,5.979,0,0,1-.572-1.071,6.407,6.407,0,0,0-1.429-1.915,12.788,12.788,0,0,0-1.417-1.074,2.42,2.42,0,0,0-.383-.231,4.29,4.29,0,0,1-.522-.209,2.786,2.786,0,0,1-.545-.612,8.162,8.162,0,0,0-1.477-1.027,3.5,3.5,0,0,0-1-.675c-.188-.057-.388-.062-.576-.118-.427-.13-.739-.509-1.158-.663a4.647,4.647,0,0,0-1.045-.133,2.446,2.446,0,0,1-1.092-.416,1.3,1.3,0,0,0-.348-.2c-.53-.161-.573.826-.627,1.167A11.254,11.254,0,0,0,905.014,495.1Z" transform="translate(-818.237 -453.288)" fill="#ca2233"/>
  <path id="Path_391" data-name="Path 391" d="M856.962,536.2c.089.964-.639,1.9-.426,2.841.045.2.132.392.163.6a2.284,2.284,0,0,1-.564,1.557l-2.738,4.018a2.522,2.522,0,0,1-.391.483,4.046,4.046,0,0,1-2,.556,3.449,3.449,0,0,0-1.338.591.087.087,0,0,0-.017.12,1.15,1.15,0,0,0,.994.467c.072.094,0,.234-.1.3-.146.1-.349.129-.378.378a.418.418,0,0,0,.05.251.78.78,0,0,0,.479.332,2.842,2.842,0,0,0,2.682-.912c.71-.693,1.219-1.568,1.915-2.272.386-.391.823-.724,1.221-1.1a13.968,13.968,0,0,0,2-2.591,2.868,2.868,0,0,0,.434-.882c.074-.321.04-.646.124-.956a3.512,3.512,0,0,1,.656-1.072,3.546,3.546,0,0,0,.746-2.312,2.216,2.216,0,0,0-1.352-1.918,1.215,1.215,0,0,0-.758-.046,1.8,1.8,0,0,0-.771.615l-.522.6a1.4,1.4,0,0,0-.294.461.482.482,0,0,0,.1.512" transform="translate(-769.669 -491.075)" fill="#a1616a"/>
  <path id="Path_392" data-name="Path 392" d="M917.83,511.88a1.5,1.5,0,0,0-1.01.313,1.437,1.437,0,0,0-.255.4,3.974,3.974,0,0,0-.5,1.589,7.267,7.267,0,0,0,.183,1.327,5.072,5.072,0,0,1-.114,1.115,7.746,7.746,0,0,0,1.44-.554,4.816,4.816,0,0,1,.843-.438,2.537,2.537,0,0,1,1.558.3c.022-.286-.193-.786-.17-1.073a1.2,1.2,0,0,1,.064-.355,2.162,2.162,0,0,1,.216-.344,1.407,1.407,0,0,0-.126-1.648,2.3,2.3,0,0,0-1.471-.627,6.362,6.362,0,0,0-1.027-.036" transform="translate(-829.149 -470.708)" fill="#ca2233"/>
</svg>
