<svg xmlns="http://www.w3.org/2000/svg" width="23.477" height="23.477" viewBox="0 0 23.477 23.477">
  <path id="back-arrow" d="M12.3.563A11.738,11.738,0,1,0,24.039,12.3,11.736,11.736,0,0,0,12.3.563Zm1.368,6.8L10.1,10.786h8.643a1.133,1.133,0,0,1,1.136,1.136v.757a1.133,1.133,0,0,1-1.136,1.136H10.1l3.574,3.427a1.137,1.137,0,0,1,.019,1.623l-.521.516a1.131,1.131,0,0,1-1.6,0L5.282,13.105a1.131,1.131,0,0,1,0-1.6l6.281-6.286a1.131,1.131,0,0,1,1.6,0l.521.516a1.143,1.143,0,0,1-.019,1.628Z" transform="translate(-0.563 -0.563)" fill="#ca2233"/>
</svg>
