<svg width="17" height="17" viewBox="0 0 17 17" fill="none" xmlns="http://www.w3.org/2000/svg">
<path d="M14.8753 4.24935H12.042V2.12435C12.042 1.93649 11.9674 1.75632 11.8345 1.62348C11.7017 1.49064 11.5215 1.41602 11.3337 1.41602H5.66699C5.47913 1.41602 5.29896 1.49064 5.16612 1.62348C5.03329 1.75632 4.95866 1.93649 4.95866 2.12435V7.08268H2.12533C1.93746 7.08268 1.7573 7.15731 1.62446 7.29015C1.49162 7.42299 1.41699 7.60315 1.41699 7.79102V13.4577C1.41699 13.6455 1.49162 13.8257 1.62446 13.9585C1.7573 14.0914 1.93746 14.166 2.12533 14.166H14.8753C15.0632 14.166 15.2434 14.0914 15.3762 13.9585C15.509 13.8257 15.5837 13.6455 15.5837 13.4577V4.95768C15.5837 4.76982 15.509 4.58965 15.3762 4.45682C15.2434 4.32398 15.0632 4.24935 14.8753 4.24935ZM4.25033 12.7493H2.83366V11.3327H4.25033V12.7493ZM4.25033 9.91602H2.83366V8.49935H4.25033V9.91602ZM7.79199 12.7493H6.37533V11.3327H7.79199V12.7493ZM7.79199 9.91602H6.37533V8.49935H7.79199V9.91602ZM7.79199 7.08268H6.37533V5.66602H7.79199V7.08268ZM7.79199 4.24935H6.37533V2.83268H7.79199V4.24935ZM10.6253 12.7493H9.20866V11.3327H10.6253V12.7493ZM10.6253 9.91602H9.20866V8.49935H10.6253V9.91602ZM10.6253 7.08268H9.20866V5.66602H10.6253V7.08268ZM10.6253 4.24935H9.20866V2.83268H10.6253V4.24935ZM14.167 12.7493H12.7503V11.3327H14.167V12.7493ZM14.167 9.91602H12.7503V8.49935H14.167V9.91602ZM14.167 7.08268H12.7503V5.66602H14.167V7.08268Z" fill="#ca2233"/>
</svg>
