<svg width="17" height="17" viewBox="0 0 17 17" fill="none" xmlns="http://www.w3.org/2000/svg">
<path d="M13.4559 14.1673C7.4131 14.1758 2.82664 9.53482 2.83301 3.54444C2.83301 3.15273 3.15035 2.83398 3.54135 2.83398H5.41135C5.76197 2.83398 6.06018 3.09182 6.11189 3.4389C6.23521 4.27123 6.47733 5.08156 6.83085 5.84511L6.90381 6.00236C6.95281 6.10818 6.96336 6.22778 6.93362 6.34054C6.90387 6.4533 6.83571 6.55215 6.74089 6.62003C6.16147 7.03369 5.94047 7.86598 6.39168 8.51482C6.95975 9.33176 7.66877 10.041 8.48551 10.6094C9.13506 11.0599 9.96735 10.8389 10.3803 10.2602C10.4481 10.165 10.547 10.0966 10.66 10.0667C10.7729 10.0369 10.8927 10.0474 10.9987 10.0965L11.1552 10.1688C11.9188 10.5229 12.7291 10.7652 13.5614 10.8884C13.9085 10.9402 14.1663 11.2384 14.1663 11.5897V13.459C14.1663 13.5521 14.148 13.6442 14.1124 13.7302C14.0767 13.8162 14.0245 13.8943 13.9586 13.9601C13.8928 14.0259 13.8146 14.078 13.7286 14.1136C13.6426 14.1492 13.5504 14.1674 13.4573 14.1673H13.4559Z" fill="#ca2233"/>
</svg>
