<svg xmlns="http://www.w3.org/2000/svg" width="21.638" height="23.216" viewBox="0 0 21.638 23.216">
  <g id="Co-own" transform="translate(-42.425 -171.392)">
    <path id="Icon_ionic-md-home" data-name="Icon ionic-md-home" d="M10.712,22.108V16.239h4.4v5.869h4.475V13.3H22.45L12.913,4.5,3.375,13.3H6.236v8.8Z" transform="translate(39.05 172.5)" fill="#ca2233"/>
    <path id="Icon_metro-coins" data-name="Icon metro-coins" d="M13.589,17.8a4.3,4.3,0,1,1-4.3-4.3A4.3,4.3,0,0,1,13.589,17.8Zm-2.78.468a1.314,1.314,0,0,0-.242-.384,1.585,1.585,0,0,0-.342-.28,3.941,3.941,0,0,0-.392-.21q-.195-.09-.392-.175a2.556,2.556,0,0,1-.344-.176.866.866,0,0,1-.242-.215.464.464,0,0,1-.09-.287.563.563,0,0,1,.04-.21.442.442,0,0,1,.123-.17.6.6,0,0,1,.205-.111.923.923,0,0,1,.288-.04,1.381,1.381,0,0,1,.388.051,2.218,2.218,0,0,1,.311.115q.135.063.227.116a.318.318,0,0,0,.135.053.094.094,0,0,0,.067-.023.151.151,0,0,0,.038-.073.722.722,0,0,0,.019-.127c0-.052.006-.115.006-.189s0-.122,0-.167a.87.87,0,0,0-.013-.112.349.349,0,0,0-.023-.071.291.291,0,0,0-.052-.065.612.612,0,0,0-.157-.1,1.821,1.821,0,0,0-.272-.1,2.416,2.416,0,0,0-.33-.073c-.024,0-.049,0-.073-.006v-.636H9.082v.636a2.217,2.217,0,0,0-.323.067,1.521,1.521,0,0,0-.53.267,1.29,1.29,0,0,0-.357.449,1.576,1.576,0,0,0-.041,1.161,1.319,1.319,0,0,0,.24.386,1.578,1.578,0,0,0,.336.28,3.479,3.479,0,0,0,.388.21c.133.061.263.119.388.175a2.581,2.581,0,0,1,.336.176.923.923,0,0,1,.24.215.466.466,0,0,1,.092.29.646.646,0,0,1-.053.266.539.539,0,0,1-.156.2.73.73,0,0,1-.247.125,1.14,1.14,0,0,1-.331.044,1.731,1.731,0,0,1-.494-.063A2.264,2.264,0,0,1,8.2,19.35a2.429,2.429,0,0,1-.251-.14.322.322,0,0,0-.152-.063.111.111,0,0,0-.067.021.139.139,0,0,0-.046.071.6.6,0,0,0-.025.131c-.006.054-.008.121-.008.2a1.362,1.362,0,0,0,.021.271.283.283,0,0,0,.071.144.819.819,0,0,0,.163.114,1.682,1.682,0,0,0,.282.124,2.877,2.877,0,0,0,.39.1,2.592,2.592,0,0,0,.478.041h.022v.592h.6v-.671c.029-.007.06-.011.088-.019a1.731,1.731,0,0,0,.584-.3,1.423,1.423,0,0,0,.4-.493,1.537,1.537,0,0,0,.145-.687,1.343,1.343,0,0,0-.091-.519Z" transform="translate(50.474 157.896)" fill="#ca2233"/>
  </g>
</svg>
