<svg width="17" height="17" viewBox="0 0 17 17" fill="none" xmlns="http://www.w3.org/2000/svg">
    <path d="M14.167 2.83398H2.83366C2.05449 2.83398 1.42408 3.47148 1.42408 4.25065L1.41699 12.7507C1.41699 13.5298 2.05449 14.1673 2.83366 14.1673H14.167C14.9462 14.1673 15.5837 13.5298 15.5837 12.7507V4.25065C15.5837 3.47148 14.9462 2.83398 14.167 2.83398ZM13.8837 5.8444L8.87574 8.97523C8.64908 9.1169 8.35158 9.1169 8.12491 8.97523L3.11699 5.8444C3.04597 5.80453 2.98377 5.75066 2.93416 5.68606C2.88456 5.62145 2.84858 5.54745 2.8284 5.46854C2.80822 5.38963 2.80426 5.30744 2.81677 5.22695C2.82927 5.14646 2.85798 5.06935 2.90115 5.00028C2.94432 4.93121 3.00106 4.87162 3.06792 4.82511C3.13479 4.7786 3.2104 4.74614 3.29018 4.7297C3.36995 4.71325 3.45223 4.71317 3.53204 4.72945C3.61185 4.74573 3.68753 4.77803 3.75449 4.8244L8.50033 7.79232L13.2462 4.8244C13.3131 4.77803 13.3888 4.74573 13.4686 4.72945C13.5484 4.71317 13.6307 4.71325 13.7105 4.7297C13.7903 4.74614 13.8659 4.7786 13.9327 4.82511C13.9996 4.87162 14.0563 4.93121 14.0995 5.00028C14.1427 5.06935 14.1714 5.14646 14.1839 5.22695C14.1964 5.30744 14.1924 5.38963 14.1723 5.46854C14.1521 5.54745 14.1161 5.62145 14.0665 5.68606C14.0169 5.75066 13.9547 5.80453 13.8837 5.8444V5.8444Z" fill="#ca2233" />
</svg>