<svg xmlns="http://www.w3.org/2000/svg" width="17.5" height="17.812" viewBox="0 0 17.5 17.812">
  <path id="Icon_awesome-user-alt" data-name="Icon awesome-user-alt" d="M8.75,10.019a4.968,4.968,0,0,0,4.922-5.009A4.968,4.968,0,0,0,8.75,0,4.968,4.968,0,0,0,3.828,5.009,4.968,4.968,0,0,0,8.75,10.019Zm4.375,1.113H11.242a5.855,5.855,0,0,1-4.983,0H4.375A4.414,4.414,0,0,0,0,15.585v.557a1.656,1.656,0,0,0,1.641,1.67H15.859a1.656,1.656,0,0,0,1.641-1.67v-.557A4.414,4.414,0,0,0,13.125,11.132Z" fill="#686868"/>
</svg>
