<svg id="mastercardlogo" xmlns="http://www.w3.org/2000/svg" width="50.527" height="31.23" viewBox="0 0 50.527 31.23">
  <path id="Path_71" data-name="Path 71" d="M1.316.606V0H1.158L.975.416.794,0H.635V.606H.748V.15L.918.544h.116l.171-.4V.606h.111Zm-1,0V.1h.2V0H0V.1H.2v.5H.313Z" transform="translate(48.723 24.685)" fill="#f79410"/>
  <path id="Path_72" data-name="Path 72" d="M13.662,24.553H0V0H13.663Z" transform="translate(18.433 3.338)" fill="#ff5f00"/>
  <path id="Path_73" data-name="Path 73" d="M19.3,15.615A15.589,15.589,0,0,1,25.262,3.339a15.615,15.615,0,1,0,0,24.553A15.589,15.589,0,0,1,19.3,15.615" transform="translate(0 0)" fill="#eb001b"/>
  <path id="Path_74" data-name="Path 74" d="M25.264,15.615A15.614,15.614,0,0,1,0,27.892,15.587,15.587,0,0,0,5.964,15.615,15.587,15.587,0,0,0,0,3.339,15.614,15.614,0,0,1,25.264,15.615" transform="translate(25.263 0)" fill="#f79e1b"/>
</svg>
