<svg xmlns="http://www.w3.org/2000/svg" xmlns:xlink="http://www.w3.org/1999/xlink" width="174.84" height="137.64" viewBox="0 0 174.84 137.64">
  <defs>
    <linearGradient id="linear-gradient" x1="0.501" y1="1.001" x2="0.501" gradientUnits="objectBoundingBox">
      <stop offset="0" stop-color="gray" stop-opacity="0.251"/>
      <stop offset="0.54" stop-color="gray" stop-opacity="0.122"/>
      <stop offset="1" stop-color="gray" stop-opacity="0.102"/>
    </linearGradient>
    <linearGradient id="linear-gradient-2" x1="0.5" y1="1" x2="0.5" y2="0" xlink:href="#linear-gradient"/>
  </defs>
  <g id="pdf-analysis" transform="translate(0 0.106)">
    <g id="Group_121" data-name="Group 121" transform="translate(114.903 0.035)" opacity="0.5">
      <path id="Path_216" data-name="Path 216" d="M762.708,67.947a2.188,2.188,0,0,0-2.08,1.128c-1.036,1.864.632,3.7-.229,5.684a3.307,3.307,0,0,1-1.116,1.346,11.421,11.421,0,0,1-2.519,1.135,4.617,4.617,0,0,0-2.359,2.105,5.509,5.509,0,0,0-.5,3.341,13.239,13.239,0,0,0,.878,2.631,16.5,16.5,0,0,1,.844,3.25,6,6,0,0,1,.083,1.569,9.884,9.884,0,0,1-.484,1.959l-1.85,5.792a13.525,13.525,0,0,0-.594,2.321,9.756,9.756,0,0,0,.072,2.474c.2,1.695.426,3.458,1.229,4.518s2.377,1.128,3.528-.374c1.1-1.439,1.378-3.617,2.382-5.182,1.582-2.469,4.111-2.255,5.806-4.567,1.619-2.217,1.594-5.416,2.611-8.144.72-1.954,1.979-3.6,2.828-5.5a14.665,14.665,0,0,0,1.08-8.236,12.222,12.222,0,0,0-2.726-5.774,3.994,3.994,0,0,0-1.826-1.439c-.776-.23-1.549.36-2.348.414C764.5,68.449,763.638,67.961,762.708,67.947Z" transform="translate(-752.739 -67.935)" fill="#25d136"/>
      <path id="Path_217" data-name="Path 217" d="M778.176,68.1s-4.462,25.847-11.876,39.959" transform="translate(-763.86 -68.07)" fill="none" stroke="#535461" stroke-miterlimit="10" stroke-width="2"/>
      <path id="Path_218" data-name="Path 218" d="M796.3,74.93s5.445,5.578,3.361,13.286" transform="translate(-788.462 -73.671)" fill="none" stroke="#535461" stroke-miterlimit="10" stroke-width="2"/>
      <path id="Path_219" data-name="Path 219" d="M760.63,134.52s9.581,3.818,8.315,8.158" transform="translate(-759.21 -122.539)" fill="none" stroke="#535461" stroke-miterlimit="10" stroke-width="2"/>
      <path id="Path_220" data-name="Path 220" d="M822.1,108s-4.272,1.74-8.7,8.477" transform="translate(-802.485 -100.791)" fill="none" stroke="#535461" stroke-miterlimit="10" stroke-width="2"/>
      <path id="Path_221" data-name="Path 221" d="M805.089,206.268s-2.891,1-4.369-5.218" transform="translate(-792.087 -177.098)" fill="none" stroke="#535461" stroke-miterlimit="10" stroke-width="2"/>
      <path id="Path_222" data-name="Path 222" d="M758.15,225.139s5.563.741,6.391-1.8" transform="translate(-757.176 -195.378)" fill="none" stroke="#535461" stroke-miterlimit="10" stroke-width="2"/>
    </g>
    <g id="Group_122" data-name="Group 122" transform="translate(17.754 26.986)" opacity="0.5">
      <path id="Path_223" data-name="Path 223" d="M213.281,222.774a2.185,2.185,0,0,0-.2,2.357c.99,1.889,3.437,1.5,4.626,3.309a3.307,3.307,0,0,1,.513,1.672,11.351,11.351,0,0,1-.435,2.731,4.617,4.617,0,0,0,.466,3.122,5.509,5.509,0,0,0,2.519,2.247,13.4,13.4,0,0,0,2.681.709,16.5,16.5,0,0,1,3.179,1.08,6,6,0,0,1,1.357.792,9.881,9.881,0,0,1,1.373,1.479L233.189,247a13.527,13.527,0,0,0,1.619,1.771,9.754,9.754,0,0,0,2.109,1.3c1.528.761,3.125,1.54,4.452,1.452s2.247-1.367,1.619-3.156c-.594-1.7-2.267-3.136-3.026-4.835-1.2-2.677.371-4.678-.632-7.359-.961-2.577-3.654-4.3-5.375-6.657-1.234-1.681-1.922-3.627-3.043-5.382a14.721,14.721,0,0,0-6.3-5.421,12.223,12.223,0,0,0-6.325-.889,4.053,4.053,0,0,0-2.211.734c-.619.522-.54,1.5-.943,2.19C214.687,221.551,213.8,222,213.281,222.774Z" transform="translate(-212.823 -217.722)" fill="#0eb424"/>
      <path id="Path_224" data-name="Path 224" d="M228.72,225.66s19.159,17.912,26.885,31.859" transform="translate(-225.86 -224.232)" fill="none" stroke="#535461" stroke-miterlimit="10" stroke-width="2"/>
      <path id="Path_225" data-name="Path 225" d="M214.68,258.749s7.656-1.488,12.955,4.48" transform="translate(-214.346 -251.232)" fill="none" stroke="#535461" stroke-miterlimit="10" stroke-width="2"/>
      <path id="Path_226" data-name="Path 226" d="M244.92,305.823s8.457-5.914,11.383-2.474" transform="translate(-239.145 -287.06)" fill="none" stroke="#535461" stroke-miterlimit="10" stroke-width="2"/>
      <path id="Path_227" data-name="Path 227" d="M277.722,223s-.891,4.527,2.314,11.922" transform="translate(-265.951 -222.05)" fill="none" stroke="#535461" stroke-miterlimit="10" stroke-width="2"/>
      <path id="Path_228" data-name="Path 228" d="M329.275,320.61s-.749,2.969-6.765.786" transform="translate(-302.774 -302.097)" fill="none" stroke="#535461" stroke-miterlimit="10" stroke-width="2"/>
      <path id="Path_229" data-name="Path 229" d="M326.17,349.478s3.672-4.245,2-6.328" transform="translate(-305.775 -320.582)" fill="none" stroke="#535461" stroke-miterlimit="10" stroke-width="2"/>
    </g>
    <path id="Path_230" data-name="Path 230" d="M189.359,81.384c-.9,1.063-1.742,2.535-1.08,3.987,1.285,2.845,6,1.457,7.68,4.11a3.919,3.919,0,0,1,.455,2.629,21.583,21.583,0,0,1-1.645,4.678,6.352,6.352,0,0,0-.063,5.053,6.121,6.121,0,0,0,4.048,2.978,22.647,22.647,0,0,0,4.817.36,26.666,26.666,0,0,1,5.641.831,7.793,7.793,0,0,1,2.307.9,10.228,10.228,0,0,1,2.129,2.048l5.758,6.71a13.722,13.722,0,0,0,2.494,2.46,12.314,12.314,0,0,0,3.564,1.52c2.636.806,5.4,1.619,7.917,1.067a4.959,4.959,0,0,0,4-5.747c-.6-2.654-3.3-4.536-4.212-7.136-1.439-4.1,2.114-7.9,1.047-12.066-1.022-4-5.553-6.06-8.072-9.445-1.8-2.425-2.508-5.459-4.081-8.039A16.431,16.431,0,0,0,211.9,71.16a24.36,24.36,0,0,0-11.616.448,11.332,11.332,0,0,0-4.372,1.893c-1.319,1.056-1.472,2.658-2.433,3.933C192.365,78.921,190.571,79.943,189.359,81.384Z" transform="translate(-174.746 -70.122)" fill="#0eb424"/>
    <path id="Path_231" data-name="Path 231" d="M226.51,92.73s30.529,24.021,40.8,44.9" transform="translate(-206.293 -88.234)" fill="none" stroke="#535461" stroke-miterlimit="10" stroke-width="2"/>
    <path id="Path_232" data-name="Path 232" d="M189.9,147.09s14.821-4.8,22.95,3.534" transform="translate(-176.27 -131.685)" fill="none" stroke="#535461" stroke-miterlimit="10" stroke-width="2"/>
    <path id="Path_233" data-name="Path 233" d="M227.7,208.676s17.653-12.415,22.115-7.573" transform="translate(-207.269 -176.187)" fill="none" stroke="#535461" stroke-miterlimit="10" stroke-width="2"/>
    <path id="Path_234" data-name="Path 234" d="M314.995,73.21s-3.043,7.807.72,19.156" transform="translate(-277.903 -72.226)" fill="none" stroke="#535461" stroke-miterlimit="10" stroke-width="2"/>
    <path id="Path_235" data-name="Path 235" d="M385.377,211s-2.3,5.169-12.937,3.361" transform="translate(-325.965 -185.223)" fill="none" stroke="#535461" stroke-miterlimit="10" stroke-width="2"/>
    <path id="Path_236" data-name="Path 236" d="M363.13,266.586s8.182-8.183,5.68-11.156" transform="translate(-318.33 -221.659)" fill="none" stroke="#535461" stroke-miterlimit="10" stroke-width="2"/>
    <ellipse id="Ellipse_21" data-name="Ellipse 21" cx="87.42" cy="7.392" rx="87.42" ry="7.392" transform="translate(0 122.751)" fill="#6c63ff" opacity="0.1"/>
    <path id="Path_237" data-name="Path 237" d="M844.926,396.078a8.364,8.364,0,0,0-1.335-2.8.4.4,0,0,0-.085-.052h-.052V391.88l-1,.16a9.6,9.6,0,0,1-.36-1.492.693.693,0,0,0,.754.151c-.016-.027-.031-.056-.045-.085l.045-.02a1.865,1.865,0,0,1-.243-.914,3.331,3.331,0,0,1,.138-.864c.18-.621.484-1.2.653-1.825a4.435,4.435,0,0,0,.151-1.233,4.5,4.5,0,0,0-.468-2.033,1.187,1.187,0,0,0-.36-.464,4.574,4.574,0,0,0-.435-.212,2.351,2.351,0,0,1-.633-.632,5.678,5.678,0,0,0-2.744-1.832,1.607,1.607,0,0,0-.878-.07c-.675.18-.919,1.017-1.466,1.456a4.029,4.029,0,0,1-1.751.556,2.976,2.976,0,0,0-1.63.855,1.769,1.769,0,0,0-.437,1.179,1.186,1.186,0,0,0,.482,1.054,1.515,1.515,0,0,0,1.279.18,4.351,4.351,0,0,0,3.295,5.47l.117.211h0a9.013,9.013,0,0,1,.817,2.132,7.877,7.877,0,0,1-2.544,1.062,4.288,4.288,0,0,1-.133.705,3.89,3.89,0,0,1-.8,1.574c-.83.932-4.56,7.978-4.56,7.978s-.117.281-.309.759c-2.316.284-6.1.695-7.151.484l-4.138-3.937a3.048,3.048,0,0,0-1.222,2.264l-.736-.709s-3.937,3,2.28,4.973l9.459,1.1c-.9,2.719-1.742,5.884-1.481,7.606h.077a3.575,3.575,0,0,0,.54-.041l-.016.306-.916,16.318a4.674,4.674,0,0,0,2.591,4.351s3.419,10.049,2.073,11.19c0,0,.16.085.43.2l-2.812,2.492a13.151,13.151,0,0,1-3.212.414.822.822,0,0,0-.909.612.135.135,0,0,1-.011.065v.2a.154.154,0,0,0,.013.067v.025a.558.558,0,0,0,.023.072l.009.022a.612.612,0,0,0,.032.07v.016c.013.023.027.045.041.068l.013.02q.025.036.056.072l.016.018c.022.025.045.049.068.072l.011.009.077.067.016.013c.029.023.061.045.094.067l.022.014c.034.022.07.043.108.063h.016l.117.058h.016l.137.054.029.011.149.049h.025l.164.043h.013l.18.036h.036l.194.029h.038l.219.022c.426.032,1,.045,1.664.041h0v.106a.126.126,0,0,0,.013.067v.025a.558.558,0,0,0,.023.072l.009.022a.612.612,0,0,0,.032.07v.016c.013.023.027.045.041.068l.013.02q.025.036.056.072l.016.018c.022.025.045.049.068.072l.011.009.077.067.016.013c.029.023.061.045.094.067l.023.014c.034.022.07.043.108.063h.016l.117.058h.016l.137.054.029.011.149.049h.025l.164.043h.013l.18.036h.036l.194.029h.038l.219.022c2.7.207,11.293-.414,11.293-.414v-.023h0v-.031h0a5.476,5.476,0,0,0-.97-4.457c.043-.045.086-.094.126-.144,0,0-1.139-1.968-.518-2.591s-3.107-11.4-3.107-11.4a8.536,8.536,0,0,1-.829-6.63,13.522,13.522,0,0,0-.1-7.356,4.243,4.243,0,0,0,2.773-4.153v-.311a1.105,1.105,0,0,0,.18.011.806.806,0,0,0,.115,0,5.477,5.477,0,0,1,.1-3.212c.623-1.348,1.968-.1,3.212-5.594.9-3.973,1.691-8.543,2.06-10.767A5.671,5.671,0,0,0,844.926,396.078Zm-23.645,11.656-.945-.9c.313.13.66.257,1.049.38l3.563.414A18.426,18.426,0,0,1,821.281,407.734Z" transform="translate(-689.639 -324.213)" fill="url(#linear-gradient)"/>
    <path id="Path_238" data-name="Path 238" d="M831.43,514.6s-7.329,1.018-8.856.72l-4.079-3.879s-3.869,2.953,2.24,4.885l11.408,1.333Z" transform="translate(-690.769 -431.604)" fill="#fdc2cc"/>
    <path id="Path_239" data-name="Path 239" d="M831.43,514.6s-7.329,1.018-8.856.72l-4.079-3.879s-3.869,2.953,2.24,4.885l11.408,1.333Z" transform="translate(-690.769 -431.604)" opacity="0.05"/>
    <path id="Path_240" data-name="Path 240" d="M875.83,758.65l-3.563,3.156a12.905,12.905,0,0,1-3.156.407c-1.121-.1-1.628,1.731,1.018,1.934s11.095-.407,11.095-.407.815-3.257-1.628-5.09Z" transform="translate(-732.523 -634.333)" fill="#47465a"/>
    <path id="Path_241" data-name="Path 241" d="M875.83,758.65l-3.563,3.156a12.905,12.905,0,0,1-3.156.407c-1.121-.1-1.628,1.731,1.018,1.934s11.095-.407,11.095-.407.815-3.257-1.628-5.09Z" transform="translate(-732.523 -634.333)" opacity="0.05"/>
    <path id="Path_242" data-name="Path 242" d="M881.357,779.11a5.615,5.615,0,0,1-.128,1.1s-8.457.61-11.095.407c-1.272-.1-1.814-.572-1.911-1.027-.115.522.345,1.213,1.911,1.333,2.647.2,11.095-.407,11.095-.407a5.88,5.88,0,0,0,.128-1.409Z" transform="translate(-732.528 -651.112)" fill="#fff" opacity="0.3"/>
    <path id="Path_243" data-name="Path 243" d="M933.79,424.91s2.24,3.156,1.425,5.294,4.275-2.24,4.275-2.24a8.675,8.675,0,0,1-.815-5.9Z" transform="translate(-786.31 -358.307)" fill="#fdc2cc"/>
    <path id="Path_244" data-name="Path 244" d="M895.627,765.44l-3.563,3.16a12.905,12.905,0,0,1-3.156.407c-1.121-.1-1.63,1.727,1.018,1.932s11.095-.407,11.095-.407.815-3.257-1.628-5.09Z" transform="translate(-748.757 -639.901)" fill="#47465a"/>
    <path id="Path_245" data-name="Path 245" d="M888.735,592.612a2.724,2.724,0,0,1-2.062.945,8.641,8.641,0,0,1-3.739-.945c1.323-1.119-2.035-10.994-2.035-10.994a4.594,4.594,0,0,1-2.544-4.275l.9-16.027.225-4.025,2.85-1.731,2.247,1.724,2.13,1.636a8.563,8.563,0,0,1,.266,1.589,4.244,4.244,0,0,1-2.71,4.621,13.281,13.281,0,0,1,.1,7.226,8.385,8.385,0,0,0,.815,6.514s3.665,10.585,3.059,11.2S888.735,592.612,888.735,592.612Z" transform="translate(-740.847 -467.786)" fill="#565171"/>
    <path id="Path_246" data-name="Path 246" d="M888.735,592.612a2.724,2.724,0,0,1-2.062.945,8.641,8.641,0,0,1-3.739-.945c1.323-1.119-2.035-10.994-2.035-10.994a4.594,4.594,0,0,1-2.544-4.275l.9-16.027.225-4.025,2.85-1.731,2.247,1.724,2.13,1.636a8.563,8.563,0,0,1,.266,1.589,4.244,4.244,0,0,1-2.71,4.621,13.281,13.281,0,0,1,.1,7.226,8.385,8.385,0,0,0,.815,6.514s3.665,10.585,3.059,11.2S888.735,592.612,888.735,592.612Z" transform="translate(-740.847 -467.786)" opacity="0.05"/>
    <path id="Path_247" data-name="Path 247" d="M901.112,599.41c-1.731,2.138-5.8,0-5.8,0a.648.648,0,0,0,.18-.277c.747-2.03-2.519-11.733-2.519-11.733a5.947,5.947,0,0,1-3.059-4.479l-.72-16.311L889.1,564.5l4.282-1.636,1.315-.5,4.378,3.354a7.94,7.94,0,0,1,.281,2.129,4.168,4.168,0,0,1-2.717,4.084,13.282,13.282,0,0,1,.1,7.226,8.385,8.385,0,0,0,.815,6.514s3.665,10.585,3.059,11.2S901.112,599.41,901.112,599.41Z" transform="translate(-749.661 -473.362)" fill="#565171"/>
    <path id="Path_248" data-name="Path 248" d="M894.616,562.294a13.719,13.719,0,0,1-3.577-1.762l-.572-.36s-.916-2.544-3.359-.61a9.143,9.143,0,0,1-2.654,1.5,6.207,6.207,0,0,1-1.134.284l.225-4.025,2.85-1.731,2.247,1.724,1.315-.5,4.378,3.35A7.939,7.939,0,0,1,894.616,562.294Z" transform="translate(-744.921 -467.81)" opacity="0.1"/>
    <path id="Path_249" data-name="Path 249" d="M897.212,453.225c-.36,2.184-1.141,6.674-2.024,10.578-1.222,5.4-2.544,4.173-3.156,5.5a5.382,5.382,0,0,0-.1,3.156c-1.018.1-4.378-2.138-4.378-2.138s-.916-2.544-3.359-.61a7.163,7.163,0,0,1-4.378,1.832c-.509-3.359,3.257-12.316,3.257-12.316s3.669-6.922,4.475-7.838a3.822,3.822,0,0,0,.786-1.547,4.206,4.206,0,0,0,.13-.693c1.322-.1,4.581-2.339,4.581-2.339l2.544-.407v1.323a.39.39,0,0,1,.083.05,8.177,8.177,0,0,1,1.312,2.749A5.578,5.578,0,0,1,897.212,453.225Z" transform="translate(-742.008 -378.267)" fill="#f68080"/>
    <path id="Path_250" data-name="Path 250" d="M913.051,459.68s-2.647-2.138-6.616,4.784-4.885,5.8-4.885,5.8.815,3.059.407,3.665a22.335,22.335,0,0,1,3.766,0c1.018.2,7.329-7.737,7.329-7.737S916.31,461.715,913.051,459.68Z" transform="translate(-759.871 -388.902)" opacity="0.1"/>
    <path id="Path_251" data-name="Path 251" d="M912.5,457.421s-2.647-2.129-6.616,4.784-4.883,5.8-4.883,5.8,3.152,3.46,4.171,3.658,7.329-7.737,7.329-7.737S915.754,459.458,912.5,457.421Z" transform="translate(-759.42 -387.051)" opacity="0.1"/>
    <path id="Path_252" data-name="Path 252" d="M901.437,523.392a12.3,12.3,0,0,0-.407-2.767c.619-.081,1.009-.135,1.009-.135l.72,3.059Z" transform="translate(-759.445 -439.026)" opacity="0.1"/>
    <path id="Path_253" data-name="Path 253" d="M939.245,423.19l-4.885,2.845a10.435,10.435,0,0,1,.569.932,4.3,4.3,0,0,0,.857.086c1.3,0,1.913-1.369,2.7-2.291C938.434,424.028,939.027,424.01,939.245,423.19Z" transform="translate(-786.778 -359.233)" opacity="0.1"/>
    <circle id="Ellipse_22" data-name="Ellipse 22" cx="4.275" cy="4.275" r="4.275" transform="translate(144.631 59.072)" fill="#fdc2cc"/>
    <path id="Path_254" data-name="Path 254" d="M909.688,387.638a2.922,2.922,0,0,1,1.6-.84,4.076,4.076,0,0,0,1.72-.54c.54-.43.777-1.247,1.439-1.429a1.578,1.578,0,0,1,.862.068,5.578,5.578,0,0,1,2.7,1.8,2.311,2.311,0,0,0,.621.621,4.5,4.5,0,0,1,.428.209,1.165,1.165,0,0,1,.349.455,4.424,4.424,0,0,1,.31,3.107c-.166.614-.464,1.182-.641,1.8a2.362,2.362,0,0,0,.1,1.848.745.745,0,0,1-.9-.333,3.837,3.837,0,0,1-.36-.988,3.778,3.778,0,0,0-1.1-1.715c-.32-.284-.9-.475-1.117-.108-.086.142-.081.322-.155.47a.617.617,0,0,1-.846.18,1.3,1.3,0,0,1-.529-.785c-.419-1.418-1.134-2.31-2.65-1.7a1.82,1.82,0,0,1-1.774-.009A1.434,1.434,0,0,1,909.688,387.638Z" transform="translate(-766.19 -327.749)" opacity="0.1"/>
    <path id="Path_255" data-name="Path 255" d="M909.688,387.058a2.922,2.922,0,0,1,1.6-.84,4.077,4.077,0,0,0,1.72-.54c.54-.43.777-1.247,1.439-1.429a1.578,1.578,0,0,1,.862.068,5.578,5.578,0,0,1,2.7,1.8,2.311,2.311,0,0,0,.621.621,4.5,4.5,0,0,1,.428.209,1.165,1.165,0,0,1,.349.455,4.424,4.424,0,0,1,.31,3.107c-.166.614-.464,1.182-.641,1.8a2.362,2.362,0,0,0,.1,1.848.745.745,0,0,1-.9-.333,3.836,3.836,0,0,1-.36-.988,3.778,3.778,0,0,0-1.1-1.715c-.32-.284-.9-.475-1.117-.108-.086.142-.081.322-.155.47a.617.617,0,0,1-.846.18,1.3,1.3,0,0,1-.529-.785c-.419-1.418-1.134-2.31-2.65-1.7a1.82,1.82,0,0,1-1.774-.009A1.434,1.434,0,0,1,909.688,387.058Z" transform="translate(-766.19 -327.274)" fill="#b96b6b"/>
    <path id="Path_256" data-name="Path 256" d="M934.75,447.751H932.68s-4.072,2.035-4.173,1.934a3.461,3.461,0,0,0-1.1.133,4.206,4.206,0,0,0,.13-.693c1.322-.1,4.581-2.339,4.581-2.339l2.544-.407V447.7A.391.391,0,0,1,934.75,447.751Z" transform="translate(-781.078 -378.251)" opacity="0.05"/>
    <path id="Path_257" data-name="Path 257" d="M901.157,785.9a5.616,5.616,0,0,1-.128,1.1s-8.457.61-11.095.407c-1.272-.1-1.814-.572-1.911-1.027-.115.522.345,1.213,1.911,1.333,2.647.2,11.095-.407,11.095-.407A5.88,5.88,0,0,0,901.157,785.9Z" transform="translate(-748.765 -656.68)" fill="#fff" opacity="0.3"/>
    <g id="Group_123" data-name="Group 123" transform="translate(137.835 69.454)" opacity="0.05">
      <path id="Path_258" data-name="Path 258" d="M883.575,572.063a8.644,8.644,0,0,1-3.385,1.711,1.51,1.51,0,0,0,.025.223,7.163,7.163,0,0,0,4.378-1.832,3.28,3.28,0,0,1,1.308-.684C885.374,571.228,884.607,571.245,883.575,572.063Z" transform="translate(-880.19 -550.178)"/>
      <path id="Path_259" data-name="Path 259" d="M947.156,456.54a8.123,8.123,0,0,0-1.312-2.749.392.392,0,0,0-.083-.05s-.842.029-.815.05a7.7,7.7,0,0,1,1.191,2.647,5.578,5.578,0,0,1,.221,2.7c-.36,2.184-1.141,6.674-2.024,10.578-1.222,5.4-2.544,4.173-3.156,5.5a5.14,5.14,0,0,0-.142,2.989,2.574,2.574,0,0,0,1.058.268,5.381,5.381,0,0,1,.1-3.156c.612-1.324,1.934-.1,3.156-5.5.883-3.9,1.661-8.394,2.024-10.578A5.578,5.578,0,0,0,947.156,456.54Z" transform="translate(-929.958 -453.74)"/>
    </g>
    <path id="Path_260" data-name="Path 260" d="M230.828,449.239a4.324,4.324,0,0,1-3.8-2.339,8.406,8.406,0,0,0-1-1.416,4.786,4.786,0,0,1-.7-2.542c.081-1.857-1.857-12.034-1.857-12.034s.243-3.878-1.7-6.3c-1.276-1.594-3.111-6.164-4.218-9.1a.61.61,0,0,0,.261.137l-.045-.254.045.011-.565-3.151a14.337,14.337,0,0,1-2.087-3.165l.13-.027,1.715-.36s2.787-3.958,2.958-5.909l.227.011h.32a66.913,66.913,0,0,1,7.721.4h0c0-.013-.02-.063-.041-.142h0a9.691,9.691,0,0,1-.25-1.193l.16-.011,1.587-.106s5.492-6.138,3.473-7.269-4.119,5.089-4.119,5.089l-.678.124-.18.034a.785.785,0,0,1,.058-.077c.022-.025-8.966-.4-10.339-2.584,0,0-3.959-3.151-4.119-5.25a2.369,2.369,0,0,0-1.423-2.015,3.106,3.106,0,0,0-1.569-.293l-1.853.128.131.234h-.052a6.234,6.234,0,0,1-.291-.82h.038c-.013-.058-.025-.115-.036-.18a4.362,4.362,0,0,0,3.212-5.371,1.746,1.746,0,0,0,.54-.014,1.6,1.6,0,0,0,1.182-1.526V381.8a2.339,2.339,0,0,0-.9-1.8c-.371-.308-.812-.527-1.148-.869a8.521,8.521,0,0,1-.928-1.439,4.263,4.263,0,0,0-2.188-1.7,2,2,0,0,0-2,.234c-.265.25-.417.608-.72.819a3.184,3.184,0,0,1-1.528.275,2.913,2.913,0,0,0-2.2,1.645,3.779,3.779,0,0,0-.36,1.736,4.64,4.64,0,0,0,.146,1.22c.1.4.25.781.36,1.175.227.82.279,1.684.54,2.5a3.14,3.14,0,0,0,1.011,1.533l-.077.335a3.5,3.5,0,0,0-2.179,2.181c-.687,1.5-3.012,3.044-4.034,3.669a1.682,1.682,0,0,0-.761,1.056,5.494,5.494,0,0,0-.13,1.342,9.211,9.211,0,0,0,.968,4.027,32.525,32.525,0,0,0,3.07,5.578s.1,1.188.1,2.44a7.206,7.206,0,0,1-.266,2.325,8.855,8.855,0,0,0-.216,2.537c0,2.193.216,5.056.216,5.056s.617.117,1.574.257l.6,10.47a5.038,5.038,0,0,1-1.139,3.5,7.737,7.737,0,0,1-1.439,1.364c-1.7,1.211-5.331,13.974-5.331,13.974s.18.011.471.034l-1.117,3.116s4.462,3.419,7.179,2.485a2.631,2.631,0,0,1,.9-.128c.54,0,1.682-.423,1.044-.982a41.37,41.37,0,0,1-3.482-3.62,1.852,1.852,0,0,1,.252.148v-.025l.038.025s.009-.126.029-.329l-.04-.013c.083-.84.342-2.953.858-3.212.646-.324,5.411-9.772,5.411-9.772l4.765-12.277s3.8,6.542,7.026,7.672v2.73s1.778,8.077,2.424,8.966,0,4.443,0,4.443a2.213,2.213,0,0,0,.435.383l-.516,2.927a32.962,32.962,0,0,1,10.015,1.778C230.423,451.582,232.847,450.534,230.828,449.239Zm-14.862-42.248-.786.2-.155.04c-.016-.1-.027-.155-.027-.155a1.6,1.6,0,0,1-.57.139,10.521,10.521,0,0,1-.479-2.724,18.364,18.364,0,0,1-.482-3.374,2.476,2.476,0,0,1,.32-1.391l.263.022.18.18.013.013.094.085h0l.1.088.016.014.106.092.018.016.108.092.011.009.121.1.027.022.128.1h.011l.126.1.029.022.139.106.029.022.133.1.023.016.151.108.036.025.158.11.014.009.155.1.038.025.167.106.036.022.157.1.029.018.18.1.043.025.18.1h.014l.18.1.045.023.191.1.04.018.18.083.034.016.2.086.049.02.209.083h0C216.628,403.693,215.966,406.991,215.966,406.991Z" transform="translate(-179.69 -320.397)" fill="url(#linear-gradient-2)"/>
    <path id="Path_261" data-name="Path 261" d="M198.219,762.12l-1.5,4.18s4.1,3.147,6.771,2.5a7.448,7.448,0,0,1,1.224-.2c.552-.041,1.5-.443.916-.955a50.357,50.357,0,0,1-4.416-4.73Z" transform="translate(-181.863 -637.179)" fill="#4f4d59"/>
    <path id="Path_262" data-name="Path 262" d="M340.3,755.545l-.709,4.021a32.184,32.184,0,0,1,9.778,1.735s2.366-1.026.394-2.287a4.218,4.218,0,0,1-3.707-2.287c-1.42-2.445-2.287-2.129-2.287-2.129Z" transform="translate(-299.026 -631)" fill="#4f4d59"/>
    <path id="Path_263" data-name="Path 263" d="M207.239,563.559l.695,12.235a5.061,5.061,0,0,1-1.207,3.579,7.417,7.417,0,0,1-1.3,1.215c-1.655,1.182-5.2,13.641-5.2,13.641s4.021.236,5.124,1.026c0,0,.236-3.154.867-3.469s5.283-9.536,5.283-9.536l4.655-11.992s3.707,6.388,6.861,7.491v2.681s1.735,7.885,2.366,8.752,0,4.336,0,4.336,1.814,2.287,5.992-.158a5.262,5.262,0,0,1-1.26-3.313c.081-1.814-1.814-11.748-1.814-11.748s.236-3.779-1.655-6.15-5.047-11.427-5.047-11.427l-2.17-4.669Z" transform="translate(-184.733 -468.187)" fill="#787c9c"/>
    <g id="Group_124" data-name="Group 124" transform="translate(15.532 87.864)" opacity="0.1">
      <path id="Path_264" data-name="Path 264" d="M201.175,594.24s3.548-12.459,5.2-13.641a7.514,7.514,0,0,0,1.369-1.294,5,5,0,0,0,1.139-3.5l-.695-12.235,11.625-7.172-.158-.34-12.18,7.507.695,12.235a5,5,0,0,1-1.132,3.5,7.512,7.512,0,0,1-1.369,1.294c-1.655,1.182-5.2,13.641-5.2,13.641s4.021.236,5.124,1.026c0,0,.009-.122.029-.322A22.281,22.281,0,0,0,201.175,594.24Z" transform="translate(-200.47 -556.06)"/>
      <path id="Path_265" data-name="Path 265" d="M300.882,658.267s.632-3.469,0-4.336-2.373-8.754-2.373-8.754V642.5c-3.147-1.1-6.854-7.5-6.854-7.5l-.275.72c1.069,1.695,3.921,5.9,6.425,6.78v2.681s1.735,7.885,2.366,8.752,0,4.336,0,4.336a3.3,3.3,0,0,0,2.823.957A3.059,3.059,0,0,1,300.882,658.267Z" transform="translate(-275.022 -620.796)"/>
    </g>
    <path id="Path_266" data-name="Path 266" d="M379.216,488.535l-1.549.1-.817.054v-1.979l1.08-.194.664-.121s2.049-6.071,4.021-4.968S379.216,488.535,379.216,488.535Z" transform="translate(-329.582 -406.884)" fill="#714b4f"/>
    <path id="Path_267" data-name="Path 267" d="M245.787,431.26s-1.026,3.942-1.34,6.388,7.332.473,7.332.473-2.917-3.548-1.26-5.441Z" transform="translate(-220.994 -365.851)" fill="#714b4f"/>
    <path id="Path_268" data-name="Path 268" d="M252.683,461.323l.158,1.5-2.443-.158-2.454-2.134-2.443-6.855-1.576-2.443-1.184-1.5.473-1.814s.216.18.581.468c1.2.919,4.018,2.829,6.076,2.3a2.453,2.453,0,0,0,.281-.088l3.071,5.281Z" transform="translate(-219.603 -379.514)" fill="#e6e6f0"/>
    <path id="Path_269" data-name="Path 269" d="M217.249,445.28s-1.26.236-2.129,2.129c-.668,1.456-2.919,2.956-3.924,3.573a1.682,1.682,0,0,0-.763,1.063,7.848,7.848,0,0,0,.824,4.984,31.9,31.9,0,0,0,3,5.441s.315,3.779-.158,4.889,0,7.176,0,7.176,8.277,1.576,11.039,0,2.366-7.649,2.366-7.649,2.6,5.513,3.548,5.677l-.552-3.075a13.249,13.249,0,0,1-3.239-7.57s-.946-3.863-.158-4.889c0,0,13.326,1.1,14.114.158,0,0-8.752-.394-10.092-2.519,0,0-3.863-3.075-4.021-5.124a2.267,2.267,0,0,0-1.182-1.857,3.088,3.088,0,0,0-1.767-.394l-1.781.122s3.075,5.441,2.917,6.15.158,6.465.158,6.465-3.541-7.654-5.112-8.522-3.39-4.428-3.39-4.428l.315-1.8" transform="translate(-193.008 -377.349)" opacity="0.1"/>
    <path id="Path_270" data-name="Path 270" d="M252.683,461.323l.158,1.5-2.443-.158-2.454-2.134-2.443-6.855-1.576-2.443-1.184-1.5.473-1.814s.216.18.581.468l-.108.626s1.814,3.561,3.39,4.428,5.124,8.516,5.124,8.516-.315-5.758-.158-6.465c.108-.482-1.274-3.14-2.172-4.8a2.453,2.453,0,0,0,.281-.088l3.071,5.277Z" transform="translate(-219.603 -379.514)" opacity="0.1"/>
    <path id="Path_271" data-name="Path 271" d="M377.647,512.45l-.817.054v-1.979l1.08-.194A3.069,3.069,0,0,0,377.647,512.45Z" transform="translate(-329.565 -430.694)" opacity="0.1"/>
    <path id="Path_272" data-name="Path 272" d="M217.249,444s-1.26.236-2.129,2.129c-.668,1.456-2.919,2.956-3.924,3.573a1.682,1.682,0,0,0-.763,1.063,7.848,7.848,0,0,0,.824,4.984,31.9,31.9,0,0,0,3,5.441s.315,3.779-.158,4.889,0,7.176,0,7.176,8.277,1.576,11.039,0,2.366-7.663,2.366-7.663,2.6,5.52,3.548,5.677l-.552-3.075a13.249,13.249,0,0,1-3.239-7.57s-.946-3.863-.158-4.889c0,0,3.075,3.313,6.544,3.239a66.622,66.622,0,0,1,7.57.394s-.788-2.519,0-3.469c0,0-8.752-.394-10.092-2.519,0,0-3.863-3.075-4.021-5.124a2.267,2.267,0,0,0-1.182-1.857,3.087,3.087,0,0,0-1.767-.394l-1.781.122s3.082,5.43,2.924,6.15.158,6.465.158,6.465-3.548-7.651-5.119-8.518-3.4-4.425-3.4-4.425l.315-1.8" transform="translate(-193.008 -376.299)" fill="#787c9c"/>
    <path id="Path_273" data-name="Path 273" d="M229.176,490s1.893,6.388,3,7.176,7.805,4.81,9.778,3.863c0,0,.473,2.366-.236,2.917,0,0-7.352-.288-7.411-.315,0,0-4.81-.632-5.6-3s-1.735-6.388-1.735-6.388Z" transform="translate(-206.67 -414.022)" opacity="0.1"/>
    <ellipse id="Ellipse_23" data-name="Ellipse 23" cx="0.275" cy="0.394" rx="0.275" ry="0.394" transform="translate(32.325 82.402)" fill="#ba7855"/>
    <ellipse id="Ellipse_24" data-name="Ellipse 24" cx="0.275" cy="0.394" rx="0.275" ry="0.394" transform="translate(33.113 85.162)" fill="#ba7855"/>
    <g id="Group_125" data-name="Group 125" transform="translate(17.304 67.687)" opacity="0.1">
      <path id="Path_274" data-name="Path 274" d="M214.655,473.1s-.473-6.071,0-7.176.158-4.889.158-4.889a31.663,31.663,0,0,1-3-5.441,7.861,7.861,0,0,1-.824-4.984,1.682,1.682,0,0,1,.765-1.063c1.006-.617,3.257-2.118,3.923-3.573a4.1,4.1,0,0,1,1.547-1.877l.031-.18s-1.26.236-2.129,2.129c-.668,1.456-2.919,2.956-3.923,3.573a1.682,1.682,0,0,0-.765,1.063,7.848,7.848,0,0,0,.824,4.984,31.9,31.9,0,0,0,3,5.441s.315,3.779-.158,4.889,0,7.176,0,7.176,5.914,1.126,9.412.524A36.752,36.752,0,0,1,214.655,473.1Z" transform="translate(-210.321 -443.92)"/>
      <path id="Path_275" data-name="Path 275" d="M280.268,461.757a47.937,47.937,0,0,0,.088,5.092c.381.779.621,1.294.621,1.294s-.315-5.758-.158-6.465c.149-.675-2.62-5.623-2.9-6.118l-.574.04S280.427,461.037,280.268,461.757Z" transform="translate(-265.289 -453.466)"/>
      <path id="Path_276" data-name="Path 276" d="M312.354,512.029c-3.469.079-6.544-3.239-6.544-3.239a1.259,1.259,0,0,0-.2.428c.9.847,3.419,2.947,6.191,2.879a65.226,65.226,0,0,1,7.57.394s-.016-.052-.041-.142a62.752,62.752,0,0,0-6.976-.32Z" transform="translate(-288.464 -497.118)"/>
      <path id="Path_277" data-name="Path 277" d="M308.91,563.6s.032.493.014,1.233c.82,1.619,2.314,4.412,2.982,4.523l-.117-.648A36.52,36.52,0,0,1,308.91,563.6Z" transform="translate(-291.171 -542.066)"/>
    </g>
    <path id="Path_278" data-name="Path 278" d="M307.526,528.227l-1.675.36-1.321.279.709-1.979.493-.124.768-.191s1.1-5.52,3.313-5.124S307.526,528.227,307.526,528.227Z" transform="translate(-270.274 -439.794)" fill="#714b4f"/>
    <path id="Path_279" data-name="Path 279" d="M305.851,552.865l-1.321.279.709-1.979.493-.124A7.876,7.876,0,0,1,305.851,552.865Z" transform="translate(-270.274 -464.079)" opacity="0.1"/>
    <path id="Path_280" data-name="Path 280" d="M229.176,489.1s1.893,6.388,3,7.176,7.805,4.81,9.778,3.863c0,0,.473,2.366-.236,2.917,0,0-7.352-.288-7.411-.315,0,0-4.81-.632-5.6-3s-1.735-6.388-1.735-6.388Z" transform="translate(-206.67 -413.284)" fill="#787c9c"/>
    <path id="Path_281" data-name="Path 281" d="M250.674,432.14s-.16.617-.374,1.515a4.255,4.255,0,0,0,4.7,2.159,2.456,2.456,0,0,1,.407-2.262Z" transform="translate(-225.802 -366.573)" opacity="0.1"/>
    <circle id="Ellipse_25" data-name="Ellipse 25" cx="4.257" cy="4.257" r="4.257" transform="translate(23.927 60.678)" fill="#714b4f"/>
    <path id="Path_282" data-name="Path 282" d="M247.673,389.048a2.28,2.28,0,0,0,.95.058,1.56,1.56,0,0,0,1.153-1.49,2.289,2.289,0,0,0-.878-1.758c-.36-.3-.792-.515-1.121-.849a7.949,7.949,0,0,1-.9-1.4,4.162,4.162,0,0,0-2.143-1.663,1.951,1.951,0,0,0-1.954.229c-.257.243-.408.594-.7.8a3.107,3.107,0,0,1-1.492.268,2.843,2.843,0,0,0-2.143,1.605,4.016,4.016,0,0,0-.209,2.728c.1.387.243.763.349,1.148.221.8.273,1.645.529,2.436a2.61,2.61,0,0,0,1.58,1.8,5,5,0,0,1,.507-2.573.738.738,0,0,1,.36-.4.873.873,0,0,1,.434,0,4.318,4.318,0,0,0,2.879-.583c.3-.18.774-.812,1.1-.874C246.39,388.453,247.241,388.951,247.673,389.048Z" transform="translate(-215.793 -325.284)" opacity="0.1"/>
    <path id="Path_283" data-name="Path 283" d="M247.679,388.168a2.28,2.28,0,0,0,.95.058,1.56,1.56,0,0,0,1.153-1.49,2.289,2.289,0,0,0-.878-1.758c-.36-.3-.792-.515-1.121-.849a7.949,7.949,0,0,1-.9-1.4,4.162,4.162,0,0,0-2.143-1.663,1.951,1.951,0,0,0-1.954.229c-.257.243-.408.594-.7.8a3.108,3.108,0,0,1-1.492.268,2.843,2.843,0,0,0-2.143,1.605,4.016,4.016,0,0,0-.209,2.721c.1.387.243.763.349,1.148.221.8.273,1.645.529,2.436a2.61,2.61,0,0,0,1.58,1.8,5,5,0,0,1,.507-2.573.738.738,0,0,1,.36-.4.872.872,0,0,1,.434,0,4.318,4.318,0,0,0,2.879-.583c.3-.18.774-.811,1.1-.874C246.4,387.573,247.247,388.073,247.679,388.168Z" transform="translate(-215.798 -324.563)" fill="#503f43"/>
    <rect id="Rectangle_191" data-name="Rectangle 191" width="92.98" height="111.198" transform="translate(40.724 19.432)" fill="#fafbfc"/>
    <rect id="Rectangle_192" data-name="Rectangle 192" width="92.98" height="3.77" transform="translate(40.724 19.432)" fill="#ca2233"/>
    <line id="Line_10" data-name="Line 10" x2="67.851" transform="translate(53.289 64.745)" fill="none" stroke="#7983a6" stroke-miterlimit="10" stroke-width="1"/>
    <g id="Group_126" data-name="Group 126" transform="translate(53.289 57.362)" opacity="0.5">
      <line id="Line_11" data-name="Line 11" x2="1.08" fill="none" stroke="#7983a6" stroke-miterlimit="10" stroke-width="1"/>
      <line id="Line_12" data-name="Line 12" x2="62.512" transform="translate(3.199)" fill="none" stroke="#7983a6" stroke-miterlimit="10" stroke-width="1" stroke-dasharray="11.78 11.78"/>
      <line id="Line_13" data-name="Line 13" x2="1.08" transform="translate(66.771)" fill="none" stroke="#7983a6" stroke-miterlimit="10" stroke-width="1"/>
    </g>
    <g id="Group_127" data-name="Group 127" transform="translate(53.289 49.981)" opacity="0.5">
      <line id="Line_14" data-name="Line 14" x2="1.08" fill="none" stroke="#7983a6" stroke-miterlimit="10" stroke-width="1"/>
      <line id="Line_15" data-name="Line 15" x2="62.512" transform="translate(3.199)" fill="none" stroke="#7983a6" stroke-miterlimit="10" stroke-width="1" stroke-dasharray="11.78 11.78"/>
      <line id="Line_16" data-name="Line 16" x2="1.08" transform="translate(66.771)" fill="none" stroke="#7983a6" stroke-miterlimit="10" stroke-width="1"/>
    </g>
    <g id="Group_128" data-name="Group 128" transform="translate(53.289 42.599)" opacity="0.5">
      <line id="Line_17" data-name="Line 17" x2="1.08" fill="none" stroke="#7983a6" stroke-miterlimit="10" stroke-width="1"/>
      <line id="Line_18" data-name="Line 18" x2="62.512" transform="translate(3.199)" fill="none" stroke="#7983a6" stroke-miterlimit="10" stroke-width="1" stroke-dasharray="11.78 11.78"/>
      <line id="Line_19" data-name="Line 19" x2="1.08" transform="translate(66.771)" fill="none" stroke="#7983a6" stroke-miterlimit="10" stroke-width="1"/>
    </g>
    <g id="Group_129" data-name="Group 129" transform="translate(53.289 35.218)" opacity="0.5">
      <line id="Line_20" data-name="Line 20" x2="1.08" fill="none" stroke="#7983a6" stroke-miterlimit="10" stroke-width="1"/>
      <line id="Line_21" data-name="Line 21" x2="62.512" transform="translate(3.199)" fill="none" stroke="#7983a6" stroke-miterlimit="10" stroke-width="1" stroke-dasharray="11.78 11.78"/>
      <line id="Line_22" data-name="Line 22" x2="1.08" transform="translate(66.771)" fill="none" stroke="#7983a6" stroke-miterlimit="10" stroke-width="1"/>
    </g>
    <g id="Group_130" data-name="Group 130" transform="translate(56.666 49.981)" opacity="0.3">
      <rect id="Rectangle_193" data-name="Rectangle 193" width="4.869" height="14.763" fill="#ca2233"/>
    </g>
    <rect id="Rectangle_194" data-name="Rectangle 194" width="4.869" height="22.303" transform="translate(70.251 42.52)" fill="#ca2233"/>
    <g id="Group_131" data-name="Group 131" transform="translate(83.838 57.283)" opacity="0.3">
      <rect id="Rectangle_195" data-name="Rectangle 195" width="4.869" height="7.617" fill="#ca2233"/>
    </g>
    <rect id="Rectangle_196" data-name="Rectangle 196" width="4.869" height="29.842" transform="translate(97.423 34.982)" fill="#ca2233"/>
    <g id="Group_132" data-name="Group 132" transform="translate(111.007 42.207)" opacity="0.3">
      <rect id="Rectangle_197" data-name="Rectangle 197" width="4.869" height="22.538" fill="#ca2233"/>
    </g>
    <circle id="Ellipse_26" data-name="Ellipse 26" cx="1.256" cy="1.256" r="1.256" transform="translate(57.845 66.864)" fill="#6c63ff"/>
    <circle id="Ellipse_27" data-name="Ellipse 27" cx="1.256" cy="1.256" r="1.256" transform="translate(71.509 66.864)" fill="#6c63ff"/>
    <circle id="Ellipse_28" data-name="Ellipse 28" cx="1.256" cy="1.256" r="1.256" transform="translate(85.173 66.864)" fill="#6c63ff"/>
    <circle id="Ellipse_29" data-name="Ellipse 29" cx="1.256" cy="1.256" r="1.256" transform="translate(98.837 66.864)" fill="#6c63ff"/>
    <circle id="Ellipse_30" data-name="Ellipse 30" cx="1.256" cy="1.256" r="1.256" transform="translate(112.501 66.864)" fill="#6c63ff"/>
    <line id="Line_23" data-name="Line 23" x2="67.851" transform="translate(53.289 112.177)" fill="none" stroke="#7983a6" stroke-miterlimit="10" stroke-width="1"/>
    <g id="Group_133" data-name="Group 133" transform="translate(53.289 104.794)" opacity="0.5">
      <line id="Line_24" data-name="Line 24" x2="1.08" fill="none" stroke="#7983a6" stroke-miterlimit="10" stroke-width="1"/>
      <line id="Line_25" data-name="Line 25" x2="62.512" transform="translate(3.199)" fill="none" stroke="#7983a6" stroke-miterlimit="10" stroke-width="1" stroke-dasharray="11.78 11.78"/>
      <line id="Line_26" data-name="Line 26" x2="1.08" transform="translate(66.771)" fill="none" stroke="#7983a6" stroke-miterlimit="10" stroke-width="1"/>
    </g>
    <g id="Group_134" data-name="Group 134" transform="translate(53.289 97.413)" opacity="0.5">
      <line id="Line_27" data-name="Line 27" x2="1.08" fill="none" stroke="#7983a6" stroke-miterlimit="10" stroke-width="1"/>
      <line id="Line_28" data-name="Line 28" x2="62.512" transform="translate(3.199)" fill="none" stroke="#7983a6" stroke-miterlimit="10" stroke-width="1" stroke-dasharray="11.78 11.78"/>
      <line id="Line_29" data-name="Line 29" x2="1.08" transform="translate(66.771)" fill="none" stroke="#7983a6" stroke-miterlimit="10" stroke-width="1"/>
    </g>
    <g id="Group_135" data-name="Group 135" transform="translate(53.289 90.031)" opacity="0.5">
      <line id="Line_30" data-name="Line 30" x2="1.08" fill="none" stroke="#7983a6" stroke-miterlimit="10" stroke-width="1"/>
      <line id="Line_31" data-name="Line 31" x2="62.512" transform="translate(3.199)" fill="none" stroke="#7983a6" stroke-miterlimit="10" stroke-width="1" stroke-dasharray="11.78 11.78"/>
      <line id="Line_32" data-name="Line 32" x2="1.08" transform="translate(66.771)" fill="none" stroke="#7983a6" stroke-miterlimit="10" stroke-width="1"/>
    </g>
    <g id="Group_136" data-name="Group 136" transform="translate(53.289 82.65)" opacity="0.5">
      <line id="Line_33" data-name="Line 33" x2="1.08" fill="none" stroke="#7983a6" stroke-miterlimit="10" stroke-width="1"/>
      <line id="Line_34" data-name="Line 34" x2="62.512" transform="translate(3.199)" fill="none" stroke="#7983a6" stroke-miterlimit="10" stroke-width="1" stroke-dasharray="11.78 11.78"/>
      <line id="Line_35" data-name="Line 35" x2="1.08" transform="translate(66.771)" fill="none" stroke="#7983a6" stroke-miterlimit="10" stroke-width="1"/>
    </g>
    <rect id="Rectangle_198" data-name="Rectangle 198" width="4.869" height="14.763" transform="translate(56.666 97.413)" fill="#ca2233"/>
    <rect id="Rectangle_199" data-name="Rectangle 199" width="4.869" height="14.92" transform="translate(70.251 97.334)" fill="#ca2233"/>
    <rect id="Rectangle_200" data-name="Rectangle 200" width="4.869" height="7.617" transform="translate(83.838 104.717)" fill="#ca2233"/>
    <rect id="Rectangle_201" data-name="Rectangle 201" width="4.869" height="29.842" transform="translate(97.423 82.414)" fill="#ca2233"/>
    <rect id="Rectangle_202" data-name="Rectangle 202" width="4.869" height="22.538" transform="translate(129.54 64.808)" fill="#ca2233"/>
    <g id="Group_137" data-name="Group 137" transform="translate(57.845 114.296)" opacity="0.7">
      <circle id="Ellipse_31" data-name="Ellipse 31" cx="1.256" cy="1.256" r="1.256" fill="#6c63ff"/>
    </g>
    <g id="Group_138" data-name="Group 138" transform="translate(71.509 114.296)" opacity="0.7">
      <circle id="Ellipse_32" data-name="Ellipse 32" cx="1.256" cy="1.256" r="1.256" fill="#6c63ff"/>
    </g>
    <g id="Group_139" data-name="Group 139" transform="translate(85.173 114.296)" opacity="0.7">
      <circle id="Ellipse_33" data-name="Ellipse 33" cx="1.256" cy="1.256" r="1.256" fill="#6c63ff"/>
    </g>
    <g id="Group_140" data-name="Group 140" transform="translate(98.837 114.296)" opacity="0.7">
      <circle id="Ellipse_34" data-name="Ellipse 34" cx="1.256" cy="1.256" r="1.256" fill="#6c63ff"/>
    </g>
    <g id="Group_141" data-name="Group 141" transform="translate(112.501 114.296)" opacity="0.7">
      <circle id="Ellipse_35" data-name="Ellipse 35" cx="1.256" cy="1.256" r="1.256" fill="#6c63ff"/>
    </g>
    <path id="Path_284" data-name="Path 284" d="M271.69,776.292a2.1,2.1,0,0,0,.689-1.04.923.923,0,0,0-.482-1.06,1.351,1.351,0,0,0-1.274.448,1.7,1.7,0,0,1-1.24.6,1.886,1.886,0,0,0,.583-1.765.738.738,0,0,0-.162-.36c-.247-.263-.691-.149-.986.058a3.673,3.673,0,0,0-1.2,3.073,5.891,5.891,0,0,1-.018-1.26,1.3,1.3,0,0,0-.475-1.119,1.439,1.439,0,0,0-.72-.171,1.5,1.5,0,0,0-1.177.335,1.157,1.157,0,0,0,.047,1.439,4.683,4.683,0,0,0,1.218.975,2.7,2.7,0,0,1,.871.829.823.823,0,0,1,.065.148h2.636A7.345,7.345,0,0,0,271.69,776.292Z" transform="translate(-237.854 -646.068)" fill="#25d136"/>
    <path id="Path_285" data-name="Path 285" d="M983.69,764.292a2.1,2.1,0,0,0,.689-1.04.923.923,0,0,0-.482-1.06,1.351,1.351,0,0,0-1.274.448,1.694,1.694,0,0,1-1.24.6,1.886,1.886,0,0,0,.583-1.765.738.738,0,0,0-.162-.36c-.247-.263-.691-.149-.986.058a3.673,3.673,0,0,0-1.2,3.073,5.891,5.891,0,0,1-.018-1.26,1.3,1.3,0,0,0-.475-1.119,1.439,1.439,0,0,0-.72-.171,1.5,1.5,0,0,0-1.177.335,1.157,1.157,0,0,0,.047,1.439,4.684,4.684,0,0,0,1.218.975,2.7,2.7,0,0,1,.871.829.823.823,0,0,1,.065.148h2.636A7.347,7.347,0,0,0,983.69,764.292Z" transform="translate(-821.742 -636.227)" fill="#25d136"/>
    <path id="Path_286" data-name="Path 286" d="M842.939,509.2l-1.315-.153-10.076-1.171C825.432,505.944,829.3,503,829.3,503l4.072,3.869c1.175.236,5.781-.313,7.845-.578.619-.081,1.009-.135,1.009-.135Z" transform="translate(-699.632 -424.683)" fill="#fdc2cc"/>
    <path id="Path_287" data-name="Path 287" d="M913.051,458.58s-2.647-2.138-6.616,4.784-4.885,5.8-4.885,5.8.815,3.059.407,3.665a22.335,22.335,0,0,1,3.766,0c1.018.2,7.329-7.737,7.329-7.737S916.31,460.609,913.051,458.58Z" transform="translate(-759.871 -388)" fill="#f68080"/>
  </g>
</svg>
