<svg xmlns="http://www.w3.org/2000/svg" width="21.369" height="19.725" viewBox="0 0 21.369 19.725">
  <g id="wallet" transform="translate(-3.375 -4.5)">
    <path id="Path_185" data-name="Path 185" d="M11.322,18.744V9.981a2.192,2.192,0,0,1,2.193-2.193H23.634V6.693A2.185,2.185,0,0,0,21.462,4.5H5.635a2.22,2.22,0,0,0-2.26,2.157v15.41a2.22,2.22,0,0,0,2.26,2.157H21.456a2.181,2.181,0,0,0,2.173-2.193V20.938H13.51A2.191,2.191,0,0,1,11.322,18.744Z" transform="translate(0)" fill="#ca2233"/>
    <path id="Path_186" data-name="Path 186" d="M17.227,12.775v7.191a.824.824,0,0,0,.822.822h9.606a.824.824,0,0,0,.822-.822V12.775a.824.824,0,0,0-.822-.822H18.048A.824.824,0,0,0,17.227,12.775Zm3.96,5.234a1.645,1.645,0,1,1,1.536-1.536A1.645,1.645,0,0,1,21.187,18.009Z" transform="translate(-3.732 -2.008)" fill="#ca2233"/>
  </g>
</svg>
